<svg aria-hidden="true" style="position: absolute; width: 0; height: 0; overflow: hidden;" version="1.1" xmlns="http://www.w3.org/2000/svg" xmlns:xlink="http://www.w3.org/1999/xlink">
<defs>
<symbol id="icon-achievement-2" viewBox="0 0 32 32">
<path fill="#103e13" style="fill: var(--color1, #103e13)" d="M18.874 15.763c-0.161 0-0.31-0.044-0.442-0.115v0.002c0 0.253-0.098 0.49-0.276 0.667s-0.415 0.276-0.667 0.276c-0.163 0-0.314-0.045-0.448-0.118-0.013 0.231-0.106 0.447-0.271 0.612-0.178 0.178-0.415 0.276-0.668 0.276-0.502 0-0.909-0.394-0.938-0.888-0.155 0.084-0.331 0.128-0.512 0.116-0.493-0.032-0.88-0.459-0.88-0.971v-4.244l-0.483 0.837c-0.184 0.32-0.529 0.519-0.9 0.519-0.181 0-0.359-0.047-0.518-0.138-0.197-0.114-0.338-0.297-0.396-0.517s-0.028-0.449 0.085-0.646c0 0 1.581-2.738 1.678-2.906 0.011-0.025 0.044-0.099 0.072-0.161 0.027-0.060 0.049-0.121 0.071-0.183 0.477-1.346 1.658-2.182 3.081-2.182 1.849 0 3.353 1.631 3.353 3.636l0 5.183c0 0.252-0.098 0.489-0.276 0.668s-0.415 0.276-0.668 0.276l0-0zM16.464 6.501c-1.224 0-2.199 0.691-2.609 1.849-0.026 0.074-0.054 0.147-0.085 0.219-0.093 0.207-0.093 0.207-0.119 0.237l-0.003-0.003c-0.129 0.244-0.513 0.908-1.652 2.88-0.047 0.081-0.059 0.175-0.035 0.265s0.082 0.166 0.162 0.212c0.249 0.143 0.59 0.051 0.732-0.197l0.952-1.648c0.057-0.098 0.172-0.146 0.282-0.117s0.186 0.129 0.186 0.242v5.18c0 0.244 0.184 0.455 0.411 0.47 0.131 0.007 0.253-0.037 0.344-0.128 0.083-0.083 0.129-0.194 0.129-0.313v-3.388c0-0.139 0.112-0.251 0.251-0.251s0.251 0.112 0.251 0.251l-0 4.158c0 0.244 0.198 0.442 0.442 0.442 0.118 0 0.23-0.046 0.313-0.129s0.129-0.195 0.129-0.313v-4.158c0-0.139 0.112-0.251 0.251-0.251s0.251 0.112 0.251 0.251l-0 3.349v0.039c0 0.244 0.198 0.442 0.442 0.442 0.118 0 0.229-0.046 0.313-0.13s0.129-0.194 0.129-0.313v-3.388c0-0.139 0.112-0.251 0.251-0.251s0.251 0.112 0.251 0.251l-0 2.557c0 0.244 0.198 0.442 0.442 0.442 0.119 0 0.229-0.046 0.313-0.129s0.129-0.195 0.129-0.313l0-5.183c0-1.729-1.279-3.135-2.852-3.135v-0z"></path>
<path fill="#103e13" style="fill: var(--color1, #103e13)" d="M9.019 19.365l3.64-2.184c0.439-0.264 1.004-0.152 1.285 0.255 0.103 0.148 0.155 0.321 0.163 0.497 0.136-0.071 0.283-0.109 0.434-0.109 0.077 0 0.154 0.010 0.231 0.029 0.245 0.061 0.451 0.214 0.58 0.43s0.168 0.47 0.107 0.714c-0.056 0.226-0.194 0.416-0.385 0.547 0.134 0.079 0.249 0.186 0.331 0.323 0.13 0.216 0.168 0.47 0.107 0.714s-0.214 0.45-0.43 0.58l-0.001 0.001c0.131 0.079 0.245 0.185 0.326 0.32 0.13 0.216 0.168 0.47 0.107 0.715s-0.214 0.45-0.43 0.58l-4.444 2.666c-0.829 0.497-1.788 0.669-2.7 0.483-0.919-0.188-1.681-0.716-2.144-1.488-0.733-1.221-0.623-2.664 0.286-3.765 0.042-0.050 0.083-0.101 0.12-0.155 0.039-0.056 0.085-0.122 0.101-0.145 0.094-0.168 1.629-2.934 1.629-2.934 0.155-0.28 0.446-0.438 0.745-0.438 0.14 0 0.282 0.034 0.412 0.107 0.158 0.088 0.291 0.217 0.384 0.372 0.191 0.318 0.198 0.716 0.018 1.038l-0.47 0.846zM9.041 17.739c-0.049-0.081-0.116-0.146-0.197-0.192-0.169-0.094-0.382-0.033-0.475 0.136-1.099 1.979-1.473 2.653-1.617 2.893l0.003 0.001c-0.012 0.040-0.012 0.040-0.144 0.229-0.045 0.064-0.094 0.125-0.144 0.186-0.782 0.947-0.872 2.139-0.243 3.188 0.39 0.65 1.034 1.096 1.814 1.255 0.789 0.16 1.62 0.011 2.341-0.422l4.445-2.666c0.101-0.061 0.173-0.157 0.202-0.272s0.011-0.233-0.050-0.335c-0.125-0.209-0.398-0.278-0.606-0.152l-2.193 1.315c-0.119 0.071-0.273 0.033-0.344-0.086s-0.033-0.273 0.086-0.344l2.905-1.743c0.101-0.061 0.173-0.158 0.202-0.272s0.011-0.234-0.050-0.335c-0.126-0.209-0.398-0.277-0.606-0.152l-2.905 1.743c-0.119 0.071-0.273 0.033-0.344-0.086s-0.033-0.273 0.086-0.344l3.565-2.139c0.101-0.061 0.173-0.157 0.202-0.272s0.011-0.233-0.050-0.335c-0.061-0.101-0.157-0.173-0.272-0.202s-0.234-0.011-0.335 0.050l-0.66 0.396c-0 0-0 0-0 0h-0l-2.905 1.743c-0.119 0.072-0.273 0.033-0.344-0.086s-0.033-0.273 0.086-0.344l2.905-1.743c0.101-0.061 0.173-0.158 0.202-0.272 0.031-0.125 0.008-0.253-0.067-0.361-0.129-0.187-0.405-0.236-0.615-0.111l-4.441 2.664c-0.097 0.058-0.222 0.044-0.303-0.035s-0.1-0.203-0.045-0.302l0.924-1.664c0.093-0.166 0.089-0.372-0.010-0.536v-0z"></path>
<path fill="#103e13" style="fill: var(--color1, #103e13)" d="M26.412 24.438c-0.463 0.772-1.224 1.3-2.144 1.488-0.911 0.186-1.87 0.014-2.7-0.483l-4.445-2.666c-0.216-0.13-0.369-0.336-0.431-0.581s-0.023-0.498 0.107-0.714c0.081-0.135 0.194-0.242 0.326-0.32l-0.001-0.001c-0.216-0.13-0.369-0.336-0.43-0.58s-0.023-0.498 0.106-0.715c0.084-0.139 0.198-0.248 0.329-0.325-0.19-0.131-0.326-0.32-0.383-0.545-0.061-0.245-0.023-0.498 0.106-0.714s0.336-0.369 0.58-0.43c0.076-0.019 0.154-0.029 0.23-0.029 0.15 0 0.298 0.038 0.434 0.109 0.008-0.176 0.061-0.348 0.163-0.497 0.282-0.406 0.846-0.519 1.285-0.255l3.64 2.183-0.469-0.845c-0.18-0.323-0.173-0.721 0.017-1.039 0.093-0.155 0.226-0.283 0.385-0.373 0.131-0.072 0.272-0.106 0.411-0.106 0.3 0 0.59 0.158 0.745 0.438 0.54 0.972 1.558 2.806 1.63 2.934 0.015 0.022 0.061 0.088 0.101 0.144 0.038 0.053 0.078 0.104 0.12 0.155 0.909 1.102 1.018 2.544 0.286 3.765v-0zM25.739 20.993c-0.050-0.060-0.099-0.122-0.144-0.186-0.136-0.193-0.139-0.198-0.149-0.248-0.159-0.262-0.546-0.959-1.609-2.876-0.093-0.168-0.305-0.23-0.474-0.136-0.083 0.046-0.15 0.111-0.199 0.193-0.099 0.164-0.102 0.37-0.009 0.537l0.923 1.663c0.055 0.099 0.037 0.223-0.045 0.302s-0.206 0.093-0.303 0.035l-4.441-2.664c-0.209-0.125-0.485-0.076-0.615 0.111-0.074 0.107-0.098 0.236-0.067 0.361 0.029 0.114 0.1 0.211 0.202 0.272 0 0 0 0 0.001 0.001l2.904 1.742c0.119 0.071 0.157 0.225 0.086 0.344s-0.225 0.157-0.344 0.086l-3.565-2.139c-0.101-0.061-0.22-0.079-0.335-0.050s-0.211 0.1-0.272 0.202c-0.061 0.101-0.079 0.22-0.050 0.335s0.1 0.211 0.202 0.272l3.565 2.139c0.119 0.071 0.157 0.225 0.086 0.344s-0.225 0.157-0.344 0.086l-2.905-1.743c-0.209-0.126-0.481-0.057-0.607 0.152-0.061 0.101-0.079 0.22-0.050 0.335s0.1 0.211 0.202 0.272l2.905 1.743c0.119 0.071 0.157 0.225 0.086 0.344s-0.225 0.158-0.344 0.086l-2.192-1.315c-0.101-0.061-0.22-0.079-0.335-0.050s-0.211 0.1-0.272 0.202c-0.061 0.101-0.079 0.22-0.050 0.335s0.1 0.211 0.202 0.272l4.445 2.666c0.721 0.433 1.553 0.583 2.341 0.422 0.78-0.159 1.424-0.605 1.814-1.255 0.63-1.050 0.539-2.241-0.242-3.188h-0z"></path>
</symbol>
<symbol id="icon-achievement-1" viewBox="0 0 32 32">
<path fill="#4caf4f" style="fill: var(--color2, #4caf4f); stroke: var(--color2, #4caf4f)" stroke="#4caf4f" stroke-linejoin="miter" stroke-linecap="butt" stroke-miterlimit="4" stroke-width="0.6667" d="M15.531 19.698l0.405-0.341c1.203-1.012 2.066-2.37 2.472-3.889s0.334-3.127-0.205-4.604c-0.539-1.477-1.519-2.753-2.807-3.655s-2.823-1.385-4.395-1.385-3.107 0.484-4.395 1.385c-1.288 0.902-2.268 2.178-2.807 3.655s-0.61 3.085-0.205 4.604c0.406 1.519 1.269 2.877 2.472 3.889l0.405 0.341-0.482 0.218c-1.982 0.897-3.688 2.309-4.94 4.088l14.483-4.306zM15.531 19.698l0.482 0.218M15.531 19.698l0.482 0.218M16.013 19.916c1.982 0.897 3.688 2.309 4.94 4.088l0.005 0.007 0.005 0.007c0.097 0.125 0.168 0.268 0.208 0.42s0.049 0.312 0.026 0.469-0.078 0.306-0.161 0.441c-0.083 0.135-0.192 0.251-0.322 0.342s-0.276 0.155-0.43 0.187c-0.155 0.033-0.314 0.034-0.469 0.003s-0.302-0.093-0.432-0.182c-0.13-0.089-0.241-0.204-0.326-0.338l-0.004-0.007-0.005-0.007c-0.907-1.292-2.112-2.347-3.513-3.075s-2.956-1.108-4.535-1.108c-1.579 0-3.134 0.38-4.535 1.108s-2.606 1.783-3.513 3.075l-0.001 0.001c-0.107 0.153-0.249 0.278-0.414 0.364s-0.349 0.131-0.536 0.13h-0.002c-0.239 0.001-0.473-0.074-0.668-0.213l-0.002-0.001M16.013 19.916l-14.683 5.711M1.33 25.628c-0.252-0.178-0.424-0.449-0.477-0.753s0.017-0.617 0.195-0.87l0.282 1.623zM30.86 25.626v0c0.126-0.087 0.233-0.198 0.315-0.327s0.138-0.273 0.164-0.424c0.026-0.151 0.022-0.305-0.012-0.454s-0.097-0.29-0.186-0.414l-0.001-0.002c-1.252-1.779-2.958-3.191-4.94-4.088l-0.483-0.219 0.407-0.341c1.207-1.010 2.073-2.367 2.48-3.887s0.337-3.128-0.203-4.606c-0.539-1.478-1.521-2.754-2.812-3.654s-2.827-1.381-4.401-1.376h-0.002c-0.7-0.001-1.397 0.096-2.071 0.287l-0.006 0.002v-0c-0.15 0.040-0.29 0.109-0.413 0.203s-0.225 0.212-0.302 0.346c-0.077 0.134-0.126 0.283-0.145 0.436s-0.007 0.309 0.035 0.458c0.042 0.149 0.113 0.288 0.209 0.409v0c0.096 0.121 0.216 0.222 0.351 0.297s0.285 0.122 0.438 0.138 0.309 0.002 0.458-0.042l0.004-0.001c0.469-0.134 0.954-0.201 1.442-0.2M30.86 25.626l-1.898-0.089 0.272-0.192c-0-0-0-0-0-0-0.909-1.289-2.114-2.342-3.514-3.069s-2.955-1.108-4.532-1.109h-0c-0.309 0-0.606-0.123-0.825-0.342s-0.342-0.516-0.342-0.825 0.123-0.606 0.342-0.825c0.219-0.219 0.516-0.342 0.825-0.342 1.415 0 2.771-0.562 3.771-1.562s1.562-2.357 1.562-3.771c0-1.414-0.562-2.771-1.562-3.771s-2.356-1.562-3.771-1.562M30.86 25.626l-0.004 0.003M30.86 25.626l-0.004 0.003M21.188 8.167l-0.001 0.333v-0.333c0 0 0 0 0.001 0zM26.337 19.613l0.137-0.304c0.046 0.021 0.092 0.042 0.137 0.063-0.089 0.082-0.181 0.162-0.275 0.241zM26.337 19.613l0.214 0.256c0.039-0.033 0.078-0.066 0.117-0.1-0.11-0.053-0.22-0.105-0.331-0.156zM30.856 25.629c-0.195 0.139-0.428 0.214-0.667 0.213l0.667-0.213zM6.566 10.537c-0.586 0.877-0.899 1.908-0.899 2.963 0 1.414 0.562 2.771 1.562 3.771s2.357 1.562 3.771 1.562c1.055 0 2.086-0.313 2.963-0.899s1.561-1.419 1.964-2.394 0.509-2.047 0.304-3.081c-0.206-1.035-0.714-1.985-1.46-2.731s-1.696-1.254-2.731-1.46c-1.035-0.206-2.107-0.1-3.081 0.304s-1.807 1.087-2.393 1.964z"></path>
</symbol>
<symbol id="icon-achievement-3" viewBox="0 0 32 32">
<path fill="#4caf4f" style="fill: var(--color2, #4caf4f)" d="M26.667 28v-2.667c0-1.414-0.562-2.771-1.562-3.771s-2.357-1.562-3.771-1.562h-1.333c-0.354 0-0.693-0.14-0.943-0.391s-0.391-0.589-0.391-0.943v-6.667c0-0.707-0.281-1.386-0.781-1.886s-1.178-0.781-1.886-0.781-1.386 0.281-1.886 0.781c-0.5 0.5-0.781 1.178-0.781 1.886v12l-3.2-4.267c-0.248-0.331-0.57-0.6-0.941-0.785s-0.779-0.282-1.193-0.282h-0.579c-1.153 0-2.088 0.935-2.088 2.088 0 0.379 0.103 0.751 0.297 1.075l3.703 6.171zM16 5.333v0zM24 13.333v0zM6.667 13.333v0zM9.791 7.124v0zM22.209 7.124v0z"></path>
<path fill="none" stroke="#4caf4f" style="stroke: var(--color2, #4caf4f)" stroke-linejoin="round" stroke-linecap="round" stroke-miterlimit="4" stroke-width="1.3333" d="M26.667 28v-2.667c0-1.414-0.562-2.771-1.562-3.771s-2.357-1.562-3.771-1.562h-1.333c-0.354 0-0.693-0.14-0.943-0.391s-0.391-0.589-0.391-0.943v-6.667c0-0.707-0.281-1.386-0.781-1.886s-1.178-0.781-1.886-0.781v0c-0.707 0-1.386 0.281-1.886 0.781s-0.781 1.178-0.781 1.886v12l-3.2-4.267c-0.248-0.331-0.57-0.6-0.941-0.785s-0.779-0.282-1.193-0.282h-0.579c-1.153 0-2.088 0.935-2.088 2.088 0 0.379 0.103 0.751 0.297 1.075l3.703 6.171M16 5.333v-1.333M24 13.333h1.333M6.667 13.333h1.333M9.791 7.124l-0.943-0.943M22.209 7.124l0.943-0.943"></path>
</symbol>
<symbol id="icon-achievement-4" viewBox="0 0 32 32">
<path fill="#4caf4f" style="fill: var(--color2, #4caf4f); stroke: var(--color2, #4caf4f)" stroke="#4caf4f" stroke-linejoin="miter" stroke-linecap="butt" stroke-miterlimit="4" stroke-width="0.6667" d="M3.667 11v0.333h24.667v-1.833c0-0.751-0.299-1.472-0.83-2.003s-1.252-0.83-2.003-0.83h-19c-0.751 0-1.472 0.299-2.003 0.83s-0.83 1.252-0.83 2.003v1.5zM28.333 13v-0.333h-24.667v9.833c0 0.751 0.298 1.472 0.83 2.003s1.252 0.83 2.003 0.83h19c0.751 0 1.472-0.299 2.003-0.83s0.83-1.252 0.83-2.003v-9.5zM2.333 9.5c0-1.105 0.439-2.165 1.22-2.946s1.841-1.22 2.946-1.22h19c1.105 0 2.165 0.439 2.946 1.22s1.22 1.841 1.22 2.946v13c0 1.105-0.439 2.165-1.22 2.946s-1.841 1.22-2.946 1.22h-19c-1.105 0-2.165-0.439-2.946-1.22s-1.22-1.841-1.22-2.946v-13zM21 19.333h3c0.177 0 0.346 0.070 0.471 0.195s0.195 0.295 0.195 0.471c0 0.177-0.070 0.346-0.195 0.471s-0.295 0.195-0.471 0.195h-3c-0.177 0-0.346-0.070-0.471-0.195s-0.195-0.295-0.195-0.471c0-0.177 0.070-0.346 0.195-0.471s0.295-0.195 0.471-0.195z"></path>
</symbol>
<symbol id="icon-arrow-right" viewBox="0 0 31 32">
<path fill="none" stroke="#4caf4f" style="stroke: var(--color2, #4caf4f)" stroke-linejoin="miter" stroke-linecap="round" stroke-miterlimit="4" stroke-width="1.92" d="M20.48 20.991l4.215-4.215c0.5-0.5 0.5-1.31 0-1.81l-4.215-4.215M24.32 15.871h-17.92"></path>
</symbol>
<symbol id="icon-client-1" viewBox="0 0 32 32">
<path d="M9.333 2.667c3.682 0 6.667 2.985 6.667 6.667v-6.667h6.667c3.682 0 6.667 2.985 6.667 6.667s-2.985 6.667-6.667 6.667c3.682 0 6.667 2.985 6.667 6.667 0 1.828-0.736 3.485-1.928 4.689l-0.025 0.025-0.022 0.022c-1.205 1.193-2.862 1.931-4.692 1.931-1.817 0-3.465-0.727-4.667-1.906-0.016-0.015-0.031-0.031-0.047-0.046s-0.029-0.029-0.044-0.044c-1.181-1.203-1.909-2.851-1.909-4.67 0 3.682-2.985 6.667-6.667 6.667s-6.667-2.985-6.667-6.667v-6.667h6.667c-3.682 0-6.667-2.985-6.667-6.667s2.985-6.667 6.667-6.667zM14.667 9.333c0-2.946-2.388-5.333-5.333-5.333v10.667c2.946 0 5.333-2.388 5.333-5.333zM28 22.667c0-2.946-2.388-5.333-5.333-5.333s-5.333 2.388-5.333 5.333h10.667zM4 17.333v5.333c0 2.946 2.388 5.333 5.333 5.333s5.333-2.388 5.333-5.333v-5.333h-10.667zM17.333 14.667h5.333c2.946 0 5.333-2.388 5.333-5.333s-2.388-5.333-5.333-5.333h-5.333v10.667z"></path>
</symbol>
<symbol id="icon-client-2" viewBox="0 0 32 32">
<path fill="#3b4158" style="fill: var(--color3, #3b4158)" d="M9.324 9.308c0.003-0.003 0.006-0.006 0.009-0.009 3.682-3.645 9.651-3.645 13.333 0 0.005 0.005 0.010 0.010 0.015 0.015l6.652 6.585c-1.332 1.318-2.853 2.429-4.511 3.298-0.458 1.204-1.177 2.333-2.156 3.301-3.682 3.645-9.651 3.645-13.333 0-0.979-0.969-1.697-2.098-2.156-3.301-1.658-0.869-3.179-1.98-4.511-3.298l6.657-6.59zM22.030 20.385c-1.94 0.648-3.977 0.98-6.030 0.98s-4.090-0.332-6.030-0.98c0.21 0.276 0.442 0.541 0.696 0.792 2.946 2.916 7.721 2.916 10.667 0 0.254-0.251 0.486-0.516 0.696-0.792zM10.803 10.486c0.5 0.327 1.032 0.607 1.589 0.835 1.144 0.469 2.37 0.71 3.608 0.71s2.464-0.241 3.608-0.71c0.557-0.228 1.088-0.508 1.589-0.835-2.909-2.74-7.485-2.74-10.393 0z"></path>
</symbol>
<symbol id="icon-client-3" viewBox="0 0 37 32">
<path fill="#000" style="fill: var(--color4, #000)" d="M36.664 13.011c0.004-0.028 0.004-0.056 0-0.084 0.004-0.023 0.004-0.046 0-0.068l-0.272-1.955c-0.039-0.234-0.144-0.453-0.303-0.631l-0.047-0.053-0.085-0.084-4.702-3.971 0.132 0.129c-0.108-0.127-0.243-0.228-0.396-0.296s-0.32-0.102-0.488-0.099h-1.428c-0.232-0.005-0.459 0.068-0.644 0.205-0.194-0.137-0.428-0.209-0.667-0.205h-1.428c-0.187-0.003-0.372 0.043-0.536 0.132s-0.3 0.22-0.396 0.378c-0.147 0.225-0.203 0.497-0.155 0.761l0.179 1.232c-0.118-0.066-0.252-0.1-0.388-0.099h-6.914c-0.248 0.002-0.49 0.073-0.698 0.205-0.201 0.123-0.363 0.3-0.466 0.51l-0.535-0.449c-0.211-0.191-0.489-0.295-0.776-0.289h-10.848c-0.249 0.004-0.492 0.073-0.706 0.198-0.292 0.168-0.507 0.441-0.598 0.761l-3.445 11.297c-0.064 0.186-0.071 0.387-0.018 0.577s0.162 0.36 0.313 0.488c0.039 0.033 0.081 0.063 0.124 0.091 0 0-0.070-0.046-0.109-0.084l4.702 3.979c0.199 0.18 0.459 0.28 0.729 0.281h10.934c0.25-0.006 0.493-0.077 0.706-0.205 0.12-0.064 0.228-0.149 0.318-0.251l0.039-0.053 0.062-0.076 0.047-0.084 0.512 0.434c0.196 0.172 0.45 0.267 0.714 0.266h10.957c0.249-0.008 0.493-0.079 0.706-0.205 0.118-0.068 0.225-0.153 0.318-0.251l0.039-0.053 0.062-0.076c0.033-0.048 0.062-0.099 0.085-0.152 0.025-0.046 0.046-0.095 0.062-0.145l3.143-10.316v-0.091c0.004-0.035 0.004-0.071 0-0.107v-0.068c0.004-0.023 0.004-0.046 0-0.069 0.004-0.048 0.004-0.096 0-0.145h1.009c0.088 0.008 0.176 0.008 0.264 0h0.070c0.057-0.017 0.111-0.040 0.163-0.068h0.078l0.14-0.106 0.062-0.046 0.109-0.137v-0.046l0.078-0.129c-0.004-0.025-0.004-0.051 0-0.076-0.004-0.012-0.004-0.026 0-0.038 0.016-0.045 0.029-0.090 0.039-0.137-0.004-0.015-0.004-0.031 0-0.046-0.004-0.023-0.004-0.046 0-0.068 0 0 0.155-0.297 0.155-0.312z"></path>
<path fill="#fff" style="fill: var(--color5, #fff)" d="M15.969 9.146c0.041 0.037 0.070 0.085 0.082 0.138s0.008 0.109-0.013 0.159l-3.438 11.289c-0.043 0.123-0.132 0.226-0.248 0.289-0.095 0.062-0.204 0.099-0.318 0.107h-10.926c-0.093-0.004-0.182-0.042-0.248-0.107-0.040-0.036-0.067-0.083-0.080-0.134s-0.009-0.105 0.010-0.155l3.445-11.289c0.040-0.125 0.125-0.231 0.241-0.297 0.096-0.058 0.205-0.092 0.318-0.099h10.926c0.093 0.001 0.181 0.036 0.248 0.099zM10.265 18.458l2.056-6.74h-5.758l-2.049 6.74h5.75zM26.398 9.261c0.037 0.042 0.084 0.076 0.136 0.099s0.109 0.033 0.166 0.031h1.42c0.054 0 0.107-0.013 0.155-0.038s0.088-0.062 0.117-0.107c0.025-0.035 0.043-0.074 0.052-0.116s0.010-0.085 0.002-0.127l-0.279-2.008c-0.027-0.093-0.074-0.179-0.14-0.251-0.037-0.042-0.084-0.076-0.136-0.099s-0.109-0.033-0.166-0.031h-1.42c-0.054-0-0.107 0.013-0.155 0.038s-0.088 0.062-0.117 0.107c-0.054 0.107-0.078 0.175-0.054 0.236l0.287 2.008c0.015 0.098 0.061 0.188 0.132 0.259zM30.906 6.978c-0.027-0.093-0.074-0.179-0.14-0.251-0.036-0.042-0.081-0.076-0.132-0.098s-0.107-0.033-0.163-0.031h-1.428c-0.053-0.002-0.106 0.011-0.152 0.037s-0.085 0.063-0.112 0.108c-0.052 0.067-0.074 0.152-0.062 0.236l0.287 2.008c0.018 0.097 0.064 0.186 0.132 0.259 0.038 0.042 0.085 0.075 0.137 0.097s0.109 0.033 0.166 0.032h1.428c0.053 0.001 0.105-0.012 0.152-0.038s0.085-0.062 0.112-0.107c0.027-0.034 0.046-0.074 0.055-0.116s0.009-0.086-0.001-0.128l-0.279-2.008zM25.148 10.021l-0.14-0.989h-6.883c-0.108 0.006-0.213 0.040-0.303 0.099-0.057 0.031-0.107 0.073-0.146 0.124s-0.066 0.11-0.079 0.173l-0.574 1.887c-0.023 0.047-0.031 0.1-0.022 0.152s0.032 0.1 0.069 0.137c0.065 0.060 0.151 0.095 0.241 0.099h8.365l-2.056 6.74h-8.342c-0.108 0.002-0.212 0.034-0.303 0.091-0.11 0.068-0.19 0.174-0.225 0.297l-0.582 1.887c-0.019 0.048-0.024 0.101-0.014 0.152s0.033 0.098 0.069 0.137c0.063 0.064 0.149 0.102 0.241 0.107h10.957c0.113-0.010 0.223-0.046 0.318-0.107 0.115-0.063 0.201-0.166 0.241-0.289l3.15-10.316h-3.546c-0.056 0.001-0.112-0.009-0.164-0.030s-0.099-0.052-0.138-0.092c-0.064-0.069-0.11-0.153-0.132-0.243v-0.015z"></path>
</symbol>
<symbol id="icon-client-4" viewBox="0 0 32 32">
<path fill="#3a3b7b" style="fill: var(--color6, #3a3b7b)" d="M29.998 8.941c0 0.023 0 0.051-0.006 0.068-0.029 0.22-0.029 0.44-0.012 0.665 0.012 0.056 0.023 0.113 0.070 0.158 0.076 0.085 0.194 0.068 0.241-0.034 0.024-0.051 0.024-0.101 0.012-0.152-0.059-0.214-0.070-0.44-0.076-0.659 0-0.011 0-0.028 0-0.045 0.065-0.006 0.123-0.011 0.176-0.011 0.041-0.006 0.076-0.011 0.106-0.028 0.088-0.045 0.088-0.141-0.006-0.186-0.035-0.017-0.082-0.023-0.123-0.023-0.147 0.006-0.294 0.006-0.44 0.006-0.053 0-0.106 0.006-0.159 0.011-0.029 0.006-0.065 0.006-0.088 0.023-0.041 0.017-0.065 0.045-0.065 0.085 0.006 0.039 0.023 0.062 0.065 0.079 0.023 0.017 0.053 0.023 0.082 0.023 0.070 0.006 0.147 0.017 0.223 0.023zM31.612 9.2c0 0.006 0.006 0.011 0.006 0.011 0.024 0.152 0.047 0.299 0.065 0.445 0.006 0.051 0.012 0.096 0.047 0.135 0.076 0.096 0.194 0.085 0.247-0.017 0.024-0.051 0.029-0.101 0.018-0.158-0.035-0.169-0.053-0.338-0.088-0.502-0.023-0.101-0.053-0.197-0.082-0.287-0.018-0.056-0.059-0.096-0.129-0.101-0.070-0.011-0.123 0.023-0.153 0.073-0.035 0.045-0.065 0.090-0.088 0.141-0.041 0.090-0.076 0.18-0.123 0.265-0.006 0.023-0.012 0.039-0.024 0.056-0.006-0.011-0.012-0.017-0.012-0.017-0.076-0.141-0.147-0.282-0.223-0.417-0.012-0.011-0.018-0.023-0.023-0.034-0.035-0.051-0.076-0.079-0.141-0.079-0.059 0.006-0.106 0.039-0.135 0.090-0.012 0.023-0.012 0.039-0.018 0.062-0.023 0.18-0.053 0.361-0.076 0.541-0.012 0.101-0.018 0.203-0.018 0.304-0.006 0.023 0 0.051 0.012 0.073 0.012 0.045 0.047 0.073 0.094 0.079 0.059 0.006 0.1-0.011 0.117-0.056 0.018-0.034 0.023-0.062 0.029-0.090 0.024-0.101 0.041-0.197 0.059-0.293 0.012-0.056 0.018-0.101 0.035-0.163 0.012 0.023 0.023 0.039 0.035 0.056 0.053 0.068 0.106 0.135 0.17 0.192 0.065 0.045 0.117 0.039 0.17-0.011 0.012-0.011 0.018-0.017 0.029-0.028 0.053-0.079 0.117-0.158 0.17-0.237 0.012-0.011 0.018-0.023 0.029-0.034z"></path>
<path fill="#3a3b7b" style="fill: var(--color6, #3a3b7b)" d="M18.083 9.052c-0.041 0.107-0.049 0.184-0.030 0.248 0.021 0.087 0.075 0.116 0.148 0.094 0.69-0.164 2.202 0.301 2.762 0.43 0.132 0.027 0.239-0.136 0.149-0.283-0.132-0.142-1.643-0.75-2.22-0.783-0.226-0.012-0.63-0.068-0.81 0.294z"></path>
<path fill="#3a3b7b" style="fill: var(--color6, #3a3b7b)" d="M23.994 7.083c0.073 0.041 0.115 0.080 0.135 0.123 0.030 0.057 0.014 0.096-0.037 0.116-0.456 0.214-1.063 1.133-1.307 1.45-0.059 0.073-0.196 0.031-0.217-0.089 0.004-0.136 0.542-1.133 0.842-1.405 0.118-0.106 0.313-0.314 0.584-0.195z"></path>
<path fill="#3a3b7b" style="fill: var(--color6, #3a3b7b)" d="M20.363 6.63c0.088-0.064 0.18-0.086 0.227-0.045 0.688 0.565 1.053 1.459 1.278 2.277 0.009 0.019 0.009 0.046 0.002 0.075-0.003 0.024-0.021 0.050-0.051 0.070-0.031 0.022-0.059 0.029-0.071 0.010-0.301-0.394-2.023-1.925-1.385-2.387z"></path>
<path fill="#3a3b7b" style="fill: var(--color6, #3a3b7b)" d="M5.797 16.419c0.165-0.118 0.344-0.216 0.534-0.292 0.198-0.054 0.41-0.045 0.603 0.026s0.356 0.201 0.465 0.369c0.098 0.168 0.136 0.361 0.109 0.552s-0.118 0.367-0.258 0.504c-0.109 0.111-0.233 0.207-0.368 0.287-0.603 0.374-1.212 0.727-1.82 1.101-0.125 0.094-0.257 0.178-0.395 0.251-0.21 0.101-0.451 0.128-0.68 0.076s-0.432-0.178-0.574-0.358c-0.106-0.127-0.196-0.267-0.267-0.415-0.576-1.163-1.174-2.321-1.729-3.504-0.256-0.512-0.464-1.101-0.667-1.67-0.088-0.165-0.105-0.357-0.048-0.534s0.184-0.326 0.354-0.415c0.17-0.089 0.369-0.11 0.555-0.061s0.345 0.168 0.442 0.328c0.299 0.381 0.563 0.785 0.79 1.209 0.576 1.025 1.126 2.049 1.681 3.043 0.032 0.055 0.068 0.108 0.107 0.159 0.418-0.169 0.811-0.389 1.169-0.656z"></path>
<path fill="#3a3b7b" style="fill: var(--color6, #3a3b7b)" d="M11.757 16.062c-1.318 1.48-3.528 1.106-4.638-0.799-0.79-1.352-0.929-3.586 0.79-4.995 0.367-0.295 0.806-0.496 1.276-0.584 0.576-0.079 1.163 0.018 1.678 0.279s0.931 0.67 1.188 1.171c0.939 1.639 0.806 3.729-0.294 4.928zM11.223 12.609c-0.14-0.403-0.421-0.747-0.795-0.973-0.212-0.145-0.469-0.215-0.729-0.199s-0.506 0.117-0.696 0.287c-0.763 0.651-0.923 2.193-0.368 3.11 0.071 0.15 0.175 0.282 0.305 0.389s0.283 0.185 0.447 0.23c0.165 0.044 0.338 0.054 0.506 0.027s0.33-0.088 0.471-0.18c0.414-0.308 0.717-0.732 0.868-1.213s0.142-0.995-0.025-1.471l0.016-0.005z"></path>
<path fill="#3a3b7b" style="fill: var(--color6, #3a3b7b)" d="M17.137 13.254c-0.135 0.028-0.274 0.030-0.41 0.005s-0.265-0.075-0.38-0.148c-0.101-0.055-0.187-0.131-0.254-0.223s-0.111-0.195-0.13-0.305c-0.019-0.11-0.013-0.222 0.018-0.329s0.087-0.206 0.163-0.29c0.133-0.169 0.321-0.29 0.534-0.343 0.556-0.155 1.129-0.25 1.708-0.282 0.127-0.014 0.256-0.004 0.379 0.030s0.237 0.092 0.337 0.169c0.099 0.077 0.182 0.173 0.242 0.281s0.098 0.227 0.11 0.349c0.167 0.601 0.185 1.23 0.053 1.839-0.48 1.967-2.135 2.643-3.992 2.013-0.521-0.168-0.979-0.482-1.313-0.902-0.446-0.505-0.762-1.103-0.923-1.747-0.13-0.573-0.116-1.168 0.042-1.735s0.455-1.089 0.866-1.523c0.39-0.472 0.896-0.843 1.473-1.081 0.364-0.193 0.791-0.248 1.196-0.154 0.092 0.024 0.175 0.072 0.241 0.138s0.113 0.147 0.135 0.236c0.022 0.089 0.019 0.182-0.008 0.269s-0.079 0.166-0.149 0.228c-0.133 0.116-0.278 0.219-0.432 0.307-0.475 0.29-0.887 0.664-1.217 1.101-0.216 0.283-0.365 0.608-0.436 0.953s-0.063 0.699 0.025 1.040c0.121 0.465 0.39 0.882 0.769 1.194 1.174 1.025 2.701 0.036 2.434-1.363-0.39 0.092-0.731 0.19-1.078 0.272z"></path>
<path fill="#3a3b7b" style="fill: var(--color6, #3a3b7b)" d="M24.311 16.144c-1.735 1.025-3.71 0-4.142-2.152-0.315-1.537 0.283-3.688 2.375-4.508 0.445-0.171 0.928-0.231 1.404-0.174 0.572 0.1 1.096 0.371 1.499 0.772s0.665 0.915 0.748 1.467c0.352 1.829-0.448 3.781-1.884 4.595zM24.914 12.696c-0.001-0.426-0.157-0.837-0.443-1.163-0.153-0.201-0.373-0.346-0.624-0.408s-0.517-0.040-0.753 0.065c-0.939 0.389-1.601 1.803-1.361 2.843 0.018 0.163 0.074 0.321 0.162 0.461s0.208 0.261 0.349 0.353c0.142 0.092 0.303 0.153 0.472 0.178s0.342 0.016 0.506-0.029c0.497-0.166 0.926-0.478 1.23-0.89s0.465-0.905 0.462-1.41z"></path>
<path fill="#3a3b7b" style="fill: var(--color6, #3a3b7b)" d="M27.949 16.574c-0.026 0.187-0.129 0.357-0.286 0.472s-0.354 0.165-0.55 0.14c-0.195-0.025-0.372-0.124-0.492-0.274s-0.172-0.34-0.146-0.528c0.026-0.188 0.129-0.357 0.286-0.472s0.354-0.165 0.55-0.14c0.195 0.025 0.372 0.124 0.492 0.274s0.172 0.34 0.146 0.528zM27.485 9.663c0.102-0.149 0.25-0.262 0.425-0.323s0.364-0.066 0.542-0.015c0.18 0.043 0.34 0.145 0.452 0.288s0.169 0.318 0.162 0.496c-0.024 0.286-0.068 0.57-0.133 0.85-0.176 0.948-0.347 1.895-0.534 2.833-0.085 0.374-0.197 0.733-0.32 1.112-0.043 0.119-0.114 0.226-0.208 0.313-0.059 0.065-0.133 0.116-0.217 0.146s-0.175 0.040-0.264 0.027c-0.089-0.012-0.173-0.046-0.245-0.098s-0.129-0.12-0.166-0.199c-0.063-0.141-0.098-0.292-0.101-0.446 0-0.635 0-1.276 0.043-1.916 0.073-0.914 0.215-1.821 0.427-2.715 0.025-0.12 0.072-0.234 0.139-0.338v-0.015z"></path>
<path fill="#3a3b7b" style="fill: var(--color6, #3a3b7b)" d="M3.542 20.69c-0.063 0.135-0.080 0.286-0.050 0.43 0.021 0.191 0.066 0.379 0.134 0.559 0.086 0.221 0.181 0.439 0.299 0.709 0.027 0.062 0.055 0.127 0.085 0.195 0.159 0.365 0.359 0.831 0.625 1.506 0.075 0.192 0.142 0.385 0.21 0.58 0.027 0.079 0.055 0.157 0.082 0.236 0.1 0.281 0.273 0.534 0.501 0.734 0.097 0.11 0.226 0.19 0.37 0.23 0.147 0.041 0.304 0.038 0.449-0.007s0.274-0.132 0.367-0.249c0.092-0.114 0.146-0.252 0.157-0.396 0.060-0.28 0.039-0.57-0.059-0.84-0.156-0.448-0.333-0.897-0.538-1.336l-0.001-0.002c-0.337-0.687-0.679-1.369-1.037-2.052l-0.003-0.005c-0.105-0.178-0.241-0.337-0.403-0.47-0.105-0.119-0.25-0.199-0.409-0.226-0.163-0.028-0.332 0-0.475 0.080-0.136 0.074-0.243 0.188-0.307 0.325z"></path>
<path fill="#3a3b7b" style="fill: var(--color6, #3a3b7b)" d="M8.682 18.999c-0.528-0.131-1.079-0.15-1.615-0.056-0.415 0.039-0.824 0.131-1.107 0.313-0.144 0.093-0.261 0.212-0.326 0.363s-0.074 0.326-0.020 0.52c0.098 0.355 0.224 0.7 0.351 1.044l0.020 0.056 0 0.001c0.38 0.999 0.764 1.995 1.151 2.988 0.045 0.156 0.109 0.307 0.19 0.45l0.002 0.003c0.107 0.177 0.245 0.335 0.407 0.468 0.081 0.073 0.181 0.124 0.29 0.146 0.11 0.023 0.224 0.016 0.33-0.019s0.2-0.098 0.272-0.181c0.071-0.082 0.117-0.18 0.134-0.285 0.070-0.285 0.048-0.583-0.064-0.856-0.035-0.092-0.062-0.185-0.091-0.284-0.010-0.033-0.019-0.066-0.030-0.1 0.887-0.333 1.83-0.78 2.162-1.82 0.13-0.36 0.141-0.749 0.031-1.115s-0.335-0.691-0.645-0.929c-0.422-0.333-0.914-0.574-1.443-0.706zM7.219 20.275c0.017-0.005 0.035-0.009 0.053-0.014 0.577-0.087 1.168 0.029 1.663 0.327 0.218 0.146 0.308 0.307 0.323 0.463 0.016 0.16-0.045 0.334-0.167 0.501-0.231 0.315-0.651 0.568-1.031 0.615-0.277-0.612-0.558-1.25-0.84-1.893z"></path>
<path fill="#3a3b7b" style="fill: var(--color6, #3a3b7b)" d="M12.199 17.878c0.628-0.278 1.407-0.327 2.016-0.131 0.153 0.043 0.286 0.136 0.377 0.262s0.131 0.278 0.117 0.43c-0.001 0.098-0.026 0.195-0.073 0.283-0.048 0.089-0.118 0.166-0.204 0.223s-0.184 0.095-0.288 0.108c-0.104 0.013-0.209 0.002-0.307-0.032l-0.007-0.003-0.007-0.004c-0.050-0.025-0.104-0.044-0.159-0.057l-0.004-0.001c-0.428-0.109-0.833 0.072-0.98 0.294-0.070 0.106-0.079 0.213-0.021 0.31 0.063 0.104 0.217 0.221 0.529 0.305 0.086 0.023 0.174 0.044 0.263 0.066 0.246 0.061 0.503 0.125 0.75 0.213l0.001 0c1.143 0.417 1.568 1.281 1.422 2.094-0.144 0.804-0.843 1.535-1.895 1.708-0.383 0.081-0.781 0.066-1.155-0.046s-0.714-0.316-0.981-0.592l-0.007-0.007c-0.084-0.104-0.141-0.226-0.167-0.356-0.023-0.117-0.011-0.238 0.035-0.349s0.123-0.205 0.223-0.275c0.106-0.079 0.233-0.126 0.366-0.136s0.266 0.018 0.383 0.080c0.117 0.054 0.225 0.123 0.322 0.205l0.002 0.001c0.172 0.151 0.38 0.191 0.58 0.154 0.203-0.037 0.393-0.152 0.516-0.305s0.171-0.332 0.113-0.507c-0.058-0.176-0.234-0.374-0.62-0.539-0.101-0.041-0.205-0.074-0.314-0.106-0.029-0.009-0.059-0.017-0.089-0.026-0.080-0.023-0.163-0.048-0.244-0.074-0.056-0.018-0.111-0.036-0.166-0.053-0.15-0.047-0.296-0.093-0.437-0.154-0.306-0.1-0.571-0.292-0.755-0.548-0.184-0.257-0.277-0.564-0.264-0.876 0.001-0.759 0.499-1.283 1.131-1.563z"></path>
<path fill="#3a3b7b" style="fill: var(--color6, #3a3b7b)" d="M20.166 17.797c-0.122-0.057-0.257-0.084-0.392-0.079s-0.267 0.043-0.384 0.11c-0.116 0.066-0.213 0.159-0.282 0.269-0.064 0.093-0.108 0.198-0.13 0.307s-0.021 0.222 0.002 0.331c0.023 0.14 0.048 0.277 0.073 0.411 0.041 0.223 0.081 0.44 0.108 0.662l0.001 0.006c0.060 0.348 0.092 0.7 0.094 1.053l0 0.005c0.021 0.381-0.115 0.755-0.377 1.042l-0.004 0.005c-0.085 0.105-0.199 0.185-0.329 0.231s-0.271 0.057-0.407 0.031-0.262-0.088-0.363-0.179c-0.101-0.091-0.174-0.207-0.211-0.336-0.078-0.271-0.123-0.549-0.134-0.829l0.133-2.033c0.002-0.027 0.004-0.054 0.007-0.081 0.005-0.062 0.010-0.125 0.012-0.183 0.003-0.086 0-0.175-0.021-0.259-0.021-0.086-0.062-0.168-0.135-0.237s-0.168-0.12-0.29-0.154c-0.22-0.061-0.406-0.059-0.561 0.004s-0.261 0.18-0.337 0.316c-0.075 0.134-0.123 0.293-0.159 0.453-0.027 0.118-0.049 0.242-0.069 0.36-0.007 0.041-0.014 0.081-0.021 0.119l-0 0.001c-0.11 0.647-0.143 1.305-0.098 1.96 0.008 0.354 0.085 0.703 0.227 1.030 0.16 0.422 0.449 0.787 0.829 1.048s0.836 0.405 1.304 0.413c0.468 0.008 0.928-0.122 1.318-0.37s0.691-0.604 0.866-1.021c0.244-0.531 0.358-1.108 0.335-1.687-0.014-0.423-0.038-0.849-0.062-1.273-0.012-0.208-0.023-0.416-0.034-0.622-0.005-0.207-0.076-0.407-0.204-0.574-0.079-0.106-0.184-0.191-0.305-0.248z"></path>
<path fill="#3a3b7b" style="fill: var(--color6, #3a3b7b)" d="M24.478 20.984c-0.012 0.015-0.025 0.031-0.039 0.047-0.099-0.549-0.191-1.097-0.283-1.647-0.033-0.197-0.066-0.395-0.1-0.592l-0.004-0.022-0.012-0.019c-0.023-0.036-0.025-0.071-0.025-0.146v-0.009l-0.001-0.009c-0.025-0.155-0.098-0.299-0.209-0.413s-0.255-0.193-0.414-0.228c-0.158-0.037-0.325-0.029-0.478 0.024s-0.287 0.148-0.384 0.273c-0.081 0.096-0.147 0.203-0.197 0.317-0.113 0.245-0.226 0.491-0.34 0.738l-0.002 0.004c-0.284 0.616-0.57 1.236-0.848 1.86l-0.001 0.002c-0.171 0.405-0.311 0.832-0.452 1.257-0.028 0.085-0.056 0.17-0.084 0.255-0.051 0.134-0.073 0.277-0.065 0.419-0.009 0.128 0.023 0.255 0.091 0.365 0.070 0.112 0.175 0.2 0.3 0.252 0.132 0.056 0.28 0.068 0.421 0.034s0.264-0.111 0.353-0.22c0.114-0.134 0.211-0.281 0.291-0.436 0.235-0.462 0.46-0.93 0.684-1.396 0.087-0.18 0.171-0.341 0.267-0.517 0.007 0.022 0.013 0.043 0.020 0.064 0.1 0.424 0.27 0.831 0.502 1.204 0.044 0.079 0.105 0.148 0.179 0.203s0.162 0.094 0.254 0.113c0.092 0.020 0.188 0.020 0.28 0s0.179-0.058 0.255-0.113l0.149-0.107 1.156-0.934-0.068 0.418c-0.094 0.575-0.187 1.145-0.286 1.715-0.065 0.253-0.065 0.517 0 0.769 0.028 0.142 0.1 0.273 0.206 0.376s0.244 0.174 0.393 0.202c0.149 0.028 0.304 0.012 0.443-0.045 0.138-0.056 0.255-0.151 0.337-0.271 0.191-0.227 0.309-0.502 0.342-0.792 0.049-0.409 0.104-0.824 0.16-1.239 0.064-0.478 0.128-0.956 0.182-1.425l0-0.001c0.052-0.513 0.077-1.028 0.075-1.544 0.011-0.163-0.031-0.325-0.121-0.464s-0.224-0.247-0.382-0.309c-0.165-0.072-0.349-0.091-0.525-0.055-0.176 0.036-0.335 0.125-0.454 0.254-0.213 0.189-0.413 0.392-0.599 0.606l-0.001 0.001c-0.203 0.242-0.404 0.489-0.604 0.735-0.122 0.149-0.243 0.298-0.363 0.445z"></path>
</symbol>
<symbol id="icon-client-5" viewBox="0 0 32 32">
<path d="M28.292 7.794c0 0.311 0.255 0.563 0.569 0.563h0.569c0.315 0 0.569-0.252 0.569-0.563s-0.255-0.562-0.569-0.562h-0.569c-0.315 0-0.569 0.252-0.569 0.562z"></path>
<path d="M11.778 25.231h2.766l-0.805-0.796c-0.214-0.211-0.503-0.329-0.805-0.329h-1.156c-4.403 0-7.972-3.526-7.972-7.875s3.569-7.875 7.972-7.875h9.111c4.403 0 7.972 3.526 7.972 7.875s-3.569 7.875-7.972 7.875h-3.408c-0.453 0-0.888-0.178-1.208-0.494l-0.943-0.932c-0.534-0.527-1.258-0.824-2.013-0.824h-1.538c-3.145 0-5.694-2.518-5.694-5.625s2.549-5.625 5.694-5.625h9.111c3.145 0 5.694 2.518 5.694 5.625s-2.549 5.625-5.694 5.625h-2.188c-0.453 0-0.888-0.178-1.208-0.494l-0.944-0.932c-0.534-0.527-1.258-0.824-2.013-0.824h-2.758c-1.887 0-3.417-1.511-3.417-3.375s1.53-3.375 3.417-3.375h9.111c1.887 0 3.417 1.511 3.417 3.375 0 1.841-1.493 3.338-3.348 3.374l-0 0.001h-0.833c-0.453 0-0.888-0.178-1.208-0.494l-0.944-0.932c-0.438-0.433-1.004-0.71-1.611-0.796l-0.029-0.028h-4.556c-0.629 0-1.139-0.504-1.139-1.125s0.51-1.125 1.139-1.125h9.111c0.629 0 1.139 0.504 1.139 1.125s-0.51 1.125-1.139 1.125h-2.278l0.805 0.796c0.214 0.211 0.503 0.329 0.805 0.329h0.667c1.258 0 2.278-1.007 2.278-2.25s-1.020-2.25-2.278-2.25h-9.111c-1.258 0-2.278 1.007-2.278 2.25s1.020 2.25 2.278 2.25h4.181c0.453 0 0.888 0.178 1.208 0.494l0.944 0.932c0.534 0.527 1.258 0.824 2.013 0.824h1.050v-0.009c2.383-0.145 4.271-2.101 4.271-4.491 0-2.485-2.040-4.5-4.556-4.5h-9.111c-2.516 0-4.556 2.015-4.556 4.5s2.040 4.5 4.556 4.5h2.758c0.453 0 0.888 0.178 1.208 0.494l0.943 0.932c0.534 0.527 1.258 0.824 2.013 0.824h2.188c3.774 0 6.833-3.022 6.833-6.75s-3.059-6.75-6.833-6.75h-9.111c-3.774 0-6.833 3.022-6.833 6.75s3.059 6.75 6.833 6.75h1.538c0.453 0 0.888 0.178 1.208 0.494l0.944 0.932c0.534 0.527 1.258 0.824 2.013 0.824h3.408c5.032 0 9.111-4.029 9.111-9s-4.079-9-9.111-9h-9.111c-5.032 0-9.111 4.029-9.111 9s4.079 9 9.111 9z"></path>
</symbol>
<symbol id="icon-client-6" viewBox="0 0 35 32">
<path d="M8.229 9.231c-1.354 0-2.652 0.538-3.609 1.495l-3.124 3.124c-0.957 0.957-1.495 2.256-1.495 3.609 0 2.819 2.285 5.105 5.105 5.105 1.354 0 2.652-0.538 3.609-1.495l2.161-2.161c0-0 0 0 0 0l6.296-6.296c0.457-0.457 1.077-0.714 1.724-0.714 1.083 0 2 0.706 2.318 1.682l1.987-1.987c-0.907-1.42-2.496-2.361-4.306-2.361-1.354 0-2.652 0.538-3.609 1.495l-8.457 8.458c-0.457 0.457-1.077 0.714-1.724 0.714-1.346 0-2.438-1.091-2.438-2.438 0-0.647 0.257-1.267 0.714-1.724l3.124-3.124c0.457-0.457 1.077-0.714 1.724-0.714 1.083 0 2 0.706 2.318 1.682l1.987-1.987c-0.907-1.42-2.496-2.361-4.306-2.361z"></path>
<path d="M17.495 19.184c-0.457 0.457-1.077 0.714-1.724 0.714-1.082 0-2-0.705-2.318-1.681l-1.987 1.987c0.907 1.42 2.496 2.361 4.305 2.361 1.354 0 2.652-0.538 3.609-1.495l8.458-8.457c0.457-0.457 1.077-0.714 1.724-0.714 1.346 0 2.438 1.091 2.438 2.438 0 0.647-0.257 1.267-0.714 1.724l-3.124 3.124c-0.457 0.457-1.077 0.714-1.724 0.714-1.082 0-2-0.705-2.318-1.682l-1.987 1.987c0.907 1.42 2.496 2.361 4.305 2.361 1.354 0 2.652-0.538 3.609-1.495l3.124-3.124c0.957-0.957 1.495-2.256 1.495-3.609 0-2.819-2.285-5.105-5.105-5.105-1.354 0-2.652 0.538-3.609 1.495l-8.458 8.458z"></path>
</symbol>
<symbol id="icon-client-7" viewBox="0 0 37 32">
<path fill="#000" style="fill: var(--color4, #000)" d="M36.664 13.011c0.004-0.028 0.004-0.056 0-0.084 0.004-0.023 0.004-0.046 0-0.068l-0.272-1.955c-0.039-0.234-0.144-0.453-0.303-0.631l-0.047-0.053-0.085-0.084-4.702-3.971 0.132 0.129c-0.108-0.127-0.243-0.228-0.396-0.296s-0.32-0.102-0.488-0.099h-1.428c-0.232-0.005-0.459 0.068-0.644 0.205-0.194-0.137-0.428-0.209-0.667-0.205h-1.428c-0.187-0.003-0.372 0.043-0.536 0.132s-0.3 0.22-0.396 0.378c-0.147 0.225-0.203 0.497-0.155 0.761l0.179 1.232c-0.118-0.066-0.252-0.1-0.388-0.099h-6.914c-0.248 0.002-0.49 0.073-0.698 0.205-0.201 0.123-0.363 0.3-0.466 0.51l-0.535-0.449c-0.211-0.191-0.489-0.295-0.776-0.289h-10.848c-0.249 0.004-0.492 0.073-0.706 0.198-0.292 0.168-0.507 0.441-0.598 0.761l-3.445 11.297c-0.064 0.186-0.071 0.387-0.018 0.577s0.162 0.36 0.313 0.488c0.039 0.033 0.081 0.063 0.124 0.091 0 0-0.070-0.046-0.109-0.084l4.702 3.979c0.199 0.18 0.459 0.28 0.729 0.281h10.934c0.25-0.006 0.493-0.077 0.706-0.205 0.12-0.064 0.228-0.149 0.318-0.251l0.039-0.053 0.062-0.076 0.047-0.084 0.512 0.434c0.196 0.172 0.45 0.267 0.714 0.266h10.957c0.249-0.008 0.493-0.079 0.706-0.205 0.118-0.068 0.225-0.153 0.318-0.251l0.039-0.053 0.062-0.076c0.033-0.048 0.062-0.099 0.085-0.152 0.025-0.046 0.046-0.095 0.062-0.145l3.143-10.316v-0.091c0.004-0.035 0.004-0.071 0-0.107v-0.068c0.004-0.023 0.004-0.046 0-0.069 0.004-0.048 0.004-0.096 0-0.145h1.009c0.088 0.008 0.176 0.008 0.264 0h0.070c0.057-0.017 0.111-0.040 0.163-0.068h0.078l0.14-0.106 0.062-0.046 0.109-0.137v-0.046l0.078-0.129c-0.004-0.025-0.004-0.051 0-0.076-0.004-0.012-0.004-0.026 0-0.038 0.016-0.045 0.029-0.090 0.039-0.137-0.004-0.015-0.004-0.031 0-0.046-0.004-0.023-0.004-0.046 0-0.068 0 0 0.155-0.297 0.155-0.312z"></path>
<path fill="#fff" style="fill: var(--color5, #fff)" d="M15.969 9.146c0.041 0.037 0.070 0.085 0.082 0.138s0.008 0.109-0.013 0.159l-3.438 11.289c-0.043 0.123-0.132 0.226-0.248 0.289-0.095 0.062-0.204 0.099-0.318 0.107h-10.926c-0.093-0.004-0.182-0.042-0.248-0.107-0.040-0.036-0.067-0.083-0.080-0.134s-0.009-0.105 0.010-0.155l3.445-11.289c0.040-0.125 0.125-0.231 0.241-0.297 0.096-0.058 0.205-0.092 0.318-0.099h10.926c0.093 0.001 0.181 0.036 0.248 0.099zM10.265 18.458l2.056-6.74h-5.758l-2.049 6.74h5.75zM26.398 9.261c0.037 0.042 0.084 0.076 0.136 0.099s0.109 0.033 0.166 0.031h1.42c0.054 0 0.107-0.013 0.155-0.038s0.088-0.062 0.117-0.107c0.025-0.035 0.043-0.074 0.052-0.116s0.010-0.085 0.002-0.127l-0.279-2.008c-0.027-0.093-0.074-0.179-0.14-0.251-0.037-0.042-0.084-0.076-0.136-0.099s-0.109-0.033-0.166-0.031h-1.42c-0.054-0-0.107 0.013-0.155 0.038s-0.088 0.062-0.117 0.107c-0.054 0.107-0.078 0.175-0.054 0.236l0.287 2.008c0.015 0.098 0.061 0.188 0.132 0.259zM30.906 6.978c-0.027-0.093-0.074-0.179-0.14-0.251-0.036-0.042-0.081-0.076-0.132-0.098s-0.107-0.033-0.163-0.031h-1.428c-0.053-0.002-0.106 0.011-0.152 0.037s-0.085 0.063-0.112 0.108c-0.052 0.067-0.074 0.152-0.062 0.236l0.287 2.008c0.018 0.097 0.064 0.186 0.132 0.259 0.038 0.042 0.085 0.075 0.137 0.097s0.109 0.033 0.166 0.032h1.428c0.053 0.001 0.105-0.012 0.152-0.038s0.085-0.062 0.112-0.107c0.027-0.034 0.046-0.074 0.055-0.116s0.009-0.086-0.001-0.128l-0.279-2.008zM25.148 10.021l-0.14-0.989h-6.883c-0.108 0.006-0.213 0.040-0.303 0.099-0.057 0.031-0.107 0.073-0.146 0.124s-0.066 0.11-0.079 0.173l-0.574 1.887c-0.023 0.047-0.031 0.1-0.022 0.152s0.032 0.1 0.069 0.137c0.065 0.060 0.151 0.095 0.241 0.099h8.365l-2.056 6.74h-8.342c-0.108 0.002-0.212 0.034-0.303 0.091-0.11 0.068-0.19 0.174-0.225 0.297l-0.582 1.887c-0.019 0.048-0.024 0.101-0.014 0.152s0.033 0.098 0.069 0.137c0.063 0.064 0.149 0.102 0.241 0.107h10.957c0.113-0.010 0.223-0.046 0.318-0.107 0.115-0.063 0.201-0.166 0.241-0.289l3.15-10.316h-3.546c-0.056 0.001-0.112-0.009-0.164-0.030s-0.099-0.052-0.138-0.092c-0.064-0.069-0.11-0.153-0.132-0.243v-0.015z"></path>
<symbol id="icon-member-1" viewBox="0 0 37 32">
<path fill="#e8f5e9" style="fill: var(--color8, #e8f5e9)" d="M37.143 21.714c0 5.681-4.605 10.286-10.286 10.286h-15.429c-1.578 0-2.857-1.279-2.857-2.857v-19.429c0-3.156 2.558-5.714 5.714-5.714h20c1.578 0 2.857 1.279 2.857 2.857v14.857z"></path>
<path fill="#103e13" style="fill: var(--color1, #103e13)" d="M13.709 5.714c-2.041 0-3.702 1.676-3.702 3.726 0 1.296 0.666 2.441 1.671 3.108-1.214 0.406-2.265 1.165-3.035 2.157-0.426-0.328-0.902-0.591-1.415-0.78 0.778-0.578 1.287-1.506 1.287-2.549 0-1.738-1.406-3.161-3.133-3.161s-3.133 1.423-3.133 3.161c0 1.044 0.509 1.972 1.288 2.55-2.062 0.761-3.535 2.753-3.535 5.098v1.647c0 0.126 0.050 0.246 0.139 0.334s0.21 0.138 0.335 0.138h7.226c0.018 0.002 0.035 0.003 0.053 0.003h11.912c0.017 0 0.035-0.001 0.052-0.003h7.226c0.26-0.001 0.47-0.212 0.471-0.472v-1.647c0-2.345-1.47-4.337-3.531-5.098 0.779-0.578 1.288-1.506 1.288-2.55 0-1.738-1.406-3.161-3.133-3.161s-3.133 1.423-3.133 3.161c0 1.043 0.509 1.971 1.287 2.549-0.514 0.189-0.99 0.454-1.417 0.782-0.77-0.993-1.819-1.753-3.034-2.159 1.005-0.667 1.671-1.812 1.671-3.108 0-2.049-1.662-3.726-3.703-3.726h-0zM13.709 6.66c1.526 0 2.757 1.239 2.757 2.781 0 1.53-1.211 2.756-2.721 2.776-0.012 0-0.024-0.002-0.036-0.002s-0.024 0.002-0.036 0.002c-1.509-0.019-2.72-1.246-2.72-2.776 0-1.542 1.229-2.78 2.756-2.78h0zM5.38 9.161c1.211 0 2.188 0.983 2.188 2.216 0 1.224-0.964 2.203-2.164 2.216-0.008 0-0.016-0.001-0.024-0.001s-0.016 0.001-0.024 0.001c-1.2-0.013-2.164-0.992-2.164-2.216 0-1.233 0.977-2.216 2.188-2.216h0zM22.037 9.161c1.211 0 2.188 0.983 2.188 2.216 0 1.224-0.964 2.203-2.164 2.216-0.008 0-0.016-0.001-0.024-0.001s-0.016 0.001-0.024 0.001c-1.2-0.013-2.164-0.992-2.164-2.216 0-1.233 0.977-2.216 2.188-2.216v0zM13.672 13.162c0.012 0 0.024 0.002 0.036 0.002s0.024-0.002 0.036-0.002c3.027 0.019 5.45 2.463 5.45 5.521l-0 1.518h-10.97v-1.518c0-3.059 2.422-5.502 5.448-5.521h0zM5.344 14.54c0.012 0 0.024 0.002 0.036 0.002s0.024-0.002 0.036-0.002c1.024 0.008 1.958 0.361 2.702 0.952-0.532 0.942-0.84 2.029-0.84 3.191v1.514h-6.333v-1.173c0-2.486 1.954-4.465 4.399-4.485l0 0zM22.001 14.54c0.012 0 0.024 0.002 0.036 0.002s0.024-0.002 0.036-0.002c2.445 0.019 4.399 1.999 4.399 4.485v1.172h-6.337l-0-1.514c0-1.161-0.307-2.248-0.838-3.19 0.744-0.591 1.679-0.945 2.704-0.954h-0z"></path>
</symbol>
<symbol id="icon-member-2" viewBox="0 0 38 32">
<path fill="#e8f5e9" style="fill: var(--color8, #e8f5e9)" d="M37.429 21.714c0 5.681-4.605 10.286-10.286 10.286h-15.429c-1.578 0-2.857-1.279-2.857-2.857v-19.429c0-3.156 2.558-5.714 5.714-5.714h20c1.578 0 2.857 1.279 2.857 2.857v14.857z"></path>
<path fill="#103e13" style="fill: var(--color1, #103e13)" d="M15.666 10.863c-0.178 0-0.323-0.145-0.323-0.323v-0.549c0-0.178 0.145-0.323 0.323-0.323s0.323 0.145 0.323 0.323v0.549c0 0.178-0.145 0.323-0.323 0.323z"></path>
<path fill="#103e13" style="fill: var(--color1, #103e13)" d="M14.307 10.863c-0.178 0-0.323-0.145-0.323-0.323v-0.549c0-0.178 0.145-0.323 0.323-0.323s0.323 0.145 0.323 0.323v0.549c-0 0.178-0.145 0.323-0.323 0.323z"></path>
<path fill="#103e13" style="fill: var(--color1, #103e13)" d="M12.949 10.863c-0.178 0-0.323-0.145-0.323-0.323v-0.549c0-0.178 0.145-0.323 0.323-0.323s0.323 0.145 0.323 0.323v0.549c0 0.178-0.145 0.323-0.323 0.323z"></path>
<path fill="#103e13" style="fill: var(--color1, #103e13)" d="M15.666 13.11c-0.178 0-0.323-0.145-0.323-0.323v-0.549c0-0.178 0.145-0.323 0.323-0.323s0.323 0.145 0.323 0.323v0.549c0 0.179-0.145 0.323-0.323 0.323z"></path>
<path fill="#103e13" style="fill: var(--color1, #103e13)" d="M14.307 13.11c-0.178 0-0.323-0.145-0.323-0.323v-0.549c0-0.178 0.145-0.323 0.323-0.323s0.323 0.145 0.323 0.323v0.549c-0 0.179-0.145 0.323-0.323 0.323z"></path>
<path fill="#103e13" style="fill: var(--color1, #103e13)" d="M12.949 13.11c-0.178 0-0.323-0.145-0.323-0.323v-0.549c0-0.178 0.145-0.323 0.323-0.323s0.323 0.145 0.323 0.323v0.549c0 0.179-0.145 0.323-0.323 0.323z"></path>
<path fill="#103e13" style="fill: var(--color1, #103e13)" d="M15.666 15.356c-0.178 0-0.323-0.145-0.323-0.323v-0.549c0-0.178 0.145-0.323 0.323-0.323s0.323 0.145 0.323 0.323v0.549c0 0.179-0.145 0.323-0.323 0.323z"></path>
<path fill="#103e13" style="fill: var(--color1, #103e13)" d="M14.307 15.356c-0.178 0-0.323-0.145-0.323-0.323v-0.549c0-0.178 0.145-0.323 0.323-0.323s0.323 0.145 0.323 0.323v0.549c-0 0.179-0.145 0.323-0.323 0.323z"></path>
<path fill="#103e13" style="fill: var(--color1, #103e13)" d="M12.949 15.356c-0.178 0-0.323-0.145-0.323-0.323v-0.549c0-0.178 0.145-0.323 0.323-0.323s0.323 0.145 0.323 0.323v0.549c0 0.179-0.145 0.323-0.323 0.323z"></path>
<path fill="#103e13" style="fill: var(--color1, #103e13)" d="M15.666 17.602c-0.178 0-0.323-0.145-0.323-0.323v-0.549c0-0.178 0.145-0.323 0.323-0.323s0.323 0.145 0.323 0.323v0.549c0 0.178-0.145 0.323-0.323 0.323z"></path>
<path fill="#103e13" style="fill: var(--color1, #103e13)" d="M14.307 17.602c-0.178 0-0.323-0.145-0.323-0.323v-0.549c0-0.178 0.145-0.323 0.323-0.323s0.323 0.145 0.323 0.323v0.549c-0 0.178-0.145 0.323-0.323 0.323z"></path>
<path fill="#103e13" style="fill: var(--color1, #103e13)" d="M12.949 17.602c-0.178 0-0.323-0.145-0.323-0.323v-0.549c0-0.178 0.145-0.323 0.323-0.323s0.323 0.145 0.323 0.323v0.549c0 0.178-0.145 0.323-0.323 0.323z"></path>
<path fill="#103e13" style="fill: var(--color1, #103e13)" d="M15.666 19.849c-0.178 0-0.323-0.145-0.323-0.323v-0.549c0-0.178 0.145-0.323 0.323-0.323s0.323 0.145 0.323 0.323v0.549c0 0.178-0.145 0.323-0.323 0.323z"></path>
<path fill="#103e13" style="fill: var(--color1, #103e13)" d="M14.307 19.849c-0.178 0-0.323-0.145-0.323-0.323v-0.549c0-0.178 0.145-0.323 0.323-0.323s0.323 0.145 0.323 0.323v0.549c-0 0.178-0.145 0.323-0.323 0.323z"></path>
<path fill="#103e13" style="fill: var(--color1, #103e13)" d="M12.949 19.849c-0.178 0-0.323-0.145-0.323-0.323l0-0.549c0-0.178 0.145-0.323 0.323-0.323s0.323 0.145 0.323 0.323v0.549c-0 0.178-0.145 0.323-0.323 0.323z"></path>
<path fill="#103e13" style="fill: var(--color1, #103e13)" d="M3.715 22.084c0 0.178 0.145 0.323 0.323 0.323h19.684c0.178 0 0.323-0.145 0.323-0.323s-0.145-0.323-0.323-0.323h-0.598v-9.281c0-0.178-0.145-0.323-0.323-0.323l-5.278 0v-6.691c0-0.113-0.059-0.218-0.156-0.276s-0.217-0.062-0.317-0.010l-6 3.124c-0.107 0.056-0.174 0.166-0.174 0.287v5.844h-5.807c-0.178 0-0.323 0.145-0.323 0.323v7.003h-0.71c-0.178-0-0.323 0.144-0.323 0.323l0 0zM17.524 17.053h4.954v4.708l-4.954-0v-4.708zM17.524 14.806h4.954v1.6l-4.954-0v-1.6zM17.524 12.803h4.954v1.357h-4.954v-1.357zM11.524 8.786l5.354-2.787v15.762h-5.354v-12.974zM6.992 19.179c0-0.671 0.532-1.217 1.185-1.217s1.185 0.546 1.185 1.217v2.582h-2.37v-2.582zM5.394 15.081h5.484v6.68h-0.869v-2.582c0-1.027-0.821-1.863-1.832-1.863s-1.831 0.836-1.831 1.863v2.582h-0.952v-6.68z"></path>
</symbol>
<symbol id="icon-member-3" viewBox="0 0 37 32">
<path fill="#e8f5e9" style="fill: var(--color8, #e8f5e9)" d="M37.143 21.714c0 5.681-4.605 10.286-10.286 10.286h-15.429c-1.578 0-2.857-1.279-2.857-2.857v-19.429c0-3.156 2.558-5.714 5.714-5.714h20c1.578 0 2.857 1.279 2.857 2.857v14.857z"></path>
<path fill="#103e13" style="fill: var(--color1, #103e13)" d="M16.178 13.511c-0.138 0-0.265-0.038-0.379-0.099v0.002c0 0.216-0.084 0.42-0.237 0.572s-0.356 0.237-0.572 0.237c-0.14 0-0.269-0.039-0.384-0.101-0.012 0.198-0.091 0.383-0.232 0.524-0.153 0.153-0.356 0.237-0.572 0.237-0.43 0-0.779-0.338-0.804-0.761-0.133 0.072-0.283 0.11-0.438 0.1-0.423-0.028-0.754-0.393-0.754-0.832v-3.638l-0.414 0.718c-0.158 0.274-0.453 0.445-0.771 0.445-0.155 0-0.308-0.041-0.444-0.118-0.169-0.098-0.29-0.255-0.34-0.443s-0.024-0.385 0.073-0.553c0 0 1.355-2.347 1.438-2.491 0.010-0.022 0.038-0.085 0.062-0.138 0.023-0.051 0.042-0.104 0.061-0.156 0.409-1.154 1.421-1.871 2.641-1.871 1.585 0 2.874 1.398 2.874 3.117l0 4.442c0 0.216-0.084 0.419-0.236 0.572s-0.356 0.237-0.572 0.237l0-0zM14.112 5.573c-1.049 0-1.885 0.592-2.236 1.585-0.022 0.063-0.046 0.126-0.073 0.187-0.079 0.178-0.079 0.178-0.102 0.203l-0.003-0.003c-0.111 0.209-0.439 0.778-1.416 2.469-0.040 0.069-0.051 0.15-0.030 0.227s0.070 0.142 0.139 0.182c0.214 0.123 0.506 0.043 0.628-0.169l0.816-1.412c0.049-0.084 0.147-0.126 0.242-0.1s0.159 0.11 0.159 0.208v4.44c0 0.21 0.158 0.39 0.352 0.403 0.112 0.006 0.216-0.032 0.295-0.11 0.071-0.071 0.111-0.166 0.111-0.268v-2.904c0-0.119 0.096-0.215 0.215-0.215s0.215 0.096 0.215 0.215l-0 3.564c0 0.209 0.17 0.379 0.379 0.379 0.101 0 0.197-0.039 0.268-0.111s0.111-0.167 0.111-0.268v-3.564c0-0.119 0.096-0.215 0.215-0.215s0.215 0.096 0.215 0.215l-0 2.87v0.033c0 0.209 0.17 0.379 0.379 0.379 0.101 0 0.196-0.039 0.268-0.111s0.111-0.166 0.111-0.268v-2.904c0-0.119 0.096-0.215 0.215-0.215s0.215 0.096 0.215 0.215l-0 2.192c0 0.209 0.17 0.379 0.379 0.379 0.102 0 0.197-0.039 0.268-0.111s0.111-0.167 0.111-0.268l0-4.442c0-1.482-1.097-2.687-2.445-2.687v-0z"></path>
<path fill="#103e13" style="fill: var(--color1, #103e13)" d="M7.731 16.599l3.12-1.872c0.376-0.226 0.86-0.13 1.101 0.219 0.088 0.127 0.133 0.275 0.14 0.426 0.116-0.061 0.243-0.094 0.372-0.094 0.066 0 0.132 0.008 0.198 0.024 0.21 0.052 0.386 0.183 0.497 0.369s0.144 0.403 0.091 0.612c-0.048 0.194-0.166 0.357-0.33 0.469 0.115 0.068 0.213 0.16 0.284 0.277 0.111 0.186 0.144 0.403 0.091 0.612s-0.183 0.386-0.369 0.497l-0.001 0.001c0.113 0.067 0.21 0.159 0.279 0.274 0.111 0.186 0.144 0.403 0.091 0.613s-0.184 0.386-0.369 0.497l-3.809 2.285c-0.711 0.426-1.533 0.574-2.314 0.414-0.788-0.161-1.441-0.614-1.838-1.276-0.628-1.047-0.534-2.283 0.245-3.227 0.036-0.043 0.071-0.087 0.103-0.132 0.034-0.048 0.073-0.105 0.087-0.124 0.081-0.144 1.397-2.515 1.396-2.515 0.133-0.24 0.382-0.376 0.639-0.375 0.12 0 0.241 0.030 0.354 0.092 0.135 0.076 0.249 0.186 0.329 0.319 0.164 0.273 0.169 0.614 0.015 0.89l-0.402 0.725zM7.75 15.205c-0.042-0.070-0.099-0.125-0.169-0.164-0.145-0.080-0.328-0.028-0.407 0.116-0.942 1.696-1.263 2.274-1.386 2.48l0.003 0.001c-0.010 0.034-0.010 0.034-0.124 0.196-0.038 0.055-0.080 0.107-0.123 0.159-0.67 0.812-0.748 1.833-0.208 2.733 0.334 0.557 0.886 0.939 1.555 1.076 0.676 0.137 1.388 0.010 2.007-0.361l3.81-2.285c0.087-0.052 0.148-0.135 0.173-0.233s0.009-0.2-0.043-0.287c-0.107-0.179-0.341-0.238-0.52-0.13l-1.879 1.128c-0.102 0.061-0.234 0.028-0.295-0.074s-0.028-0.234 0.074-0.295l2.49-1.494c0.087-0.052 0.148-0.135 0.173-0.233s0.009-0.2-0.043-0.287c-0.108-0.179-0.341-0.237-0.52-0.13l-2.49 1.494c-0.102 0.061-0.234 0.028-0.295-0.074s-0.028-0.234 0.074-0.295l3.056-1.833c0.087-0.052 0.148-0.135 0.173-0.233s0.009-0.2-0.043-0.287c-0.052-0.087-0.135-0.148-0.233-0.173s-0.2-0.009-0.287 0.043l-0.566 0.339c-0 0-0 0-0 0h-0l-2.49 1.494c-0.102 0.061-0.234 0.028-0.295-0.074s-0.028-0.234 0.074-0.295l2.49-1.494c0.087-0.052 0.149-0.135 0.173-0.233 0.027-0.107 0.007-0.217-0.057-0.309-0.111-0.16-0.347-0.203-0.527-0.095l-3.807 2.284c-0.083 0.050-0.19 0.038-0.26-0.030s-0.086-0.174-0.039-0.259l0.792-1.426c0.079-0.143 0.076-0.319-0.008-0.46v-0z"></path>
<path fill="#103e13" style="fill: var(--color1, #103e13)" d="M22.639 20.947c-0.397 0.662-1.049 1.115-1.837 1.276-0.781 0.159-1.603 0.012-2.314-0.414l-3.81-2.285c-0.185-0.111-0.316-0.288-0.369-0.498s-0.020-0.427 0.092-0.612c0.069-0.116 0.166-0.207 0.279-0.274l-0.001-0.001c-0.185-0.111-0.316-0.288-0.369-0.497s-0.020-0.427 0.091-0.613c0.072-0.119 0.17-0.212 0.282-0.278-0.163-0.112-0.28-0.274-0.328-0.467-0.053-0.21-0.020-0.427 0.091-0.612s0.288-0.316 0.497-0.369c0.065-0.016 0.132-0.024 0.198-0.024 0.129 0 0.255 0.033 0.372 0.094 0.007-0.151 0.052-0.299 0.14-0.426 0.241-0.348 0.725-0.445 1.102-0.219l3.12 1.871-0.402-0.724c-0.154-0.277-0.149-0.618 0.015-0.89 0.080-0.133 0.194-0.243 0.33-0.319 0.112-0.062 0.233-0.091 0.353-0.091 0.257 0 0.506 0.136 0.639 0.375 0.463 0.834 1.336 2.405 1.397 2.515 0.013 0.019 0.052 0.076 0.086 0.124 0.032 0.046 0.067 0.089 0.103 0.133 0.779 0.944 0.873 2.181 0.245 3.227v-0zM22.062 17.994c-0.043-0.052-0.085-0.105-0.123-0.159-0.116-0.165-0.119-0.169-0.128-0.213-0.136-0.225-0.468-0.822-1.38-2.465-0.080-0.144-0.262-0.197-0.406-0.117-0.071 0.040-0.128 0.095-0.17 0.165-0.085 0.141-0.088 0.317-0.008 0.46l0.791 1.426c0.047 0.085 0.032 0.191-0.038 0.259s-0.176 0.080-0.26 0.030l-3.807-2.284c-0.179-0.108-0.416-0.065-0.527 0.095-0.064 0.092-0.084 0.202-0.057 0.309 0.024 0.098 0.086 0.181 0.173 0.233 0 0 0 0 0.001 0.001l2.489 1.493c0.102 0.061 0.135 0.193 0.074 0.295s-0.193 0.135-0.295 0.074l-3.056-1.833c-0.087-0.052-0.189-0.067-0.287-0.043s-0.181 0.086-0.233 0.173c-0.052 0.087-0.067 0.189-0.043 0.287s0.086 0.181 0.173 0.233l3.056 1.833c0.102 0.061 0.135 0.193 0.074 0.295s-0.193 0.135-0.295 0.074l-2.49-1.494c-0.179-0.108-0.412-0.049-0.52 0.13-0.052 0.087-0.067 0.189-0.043 0.287s0.086 0.181 0.173 0.233l2.49 1.494c0.102 0.061 0.135 0.193 0.074 0.295s-0.193 0.135-0.295 0.074l-1.879-1.128c-0.087-0.052-0.188-0.067-0.287-0.043s-0.181 0.086-0.233 0.173c-0.052 0.087-0.067 0.189-0.043 0.287s0.086 0.181 0.173 0.233l3.81 2.285c0.618 0.371 1.331 0.499 2.007 0.361 0.669-0.137 1.221-0.518 1.555-1.076 0.54-0.9 0.462-1.921-0.207-2.733h-0z"></path>
</symbol>
<symbol id="icon-nexcent" viewBox="0 0 163 32">
<path d="M24.775 0.973v29.62h-5.409l-12.886-18.643h-0.217v18.643h-6.262v-29.62h5.496l12.785 18.628h0.26v-18.628h6.233z"></path>
<path d="M39.957 31.027c-2.285 0-4.252-0.463-5.901-1.389-1.639-0.935-2.902-2.256-3.789-3.963-0.887-1.716-1.331-3.746-1.331-6.089 0-2.285 0.444-4.291 1.331-6.017s2.136-3.071 3.746-4.035c1.62-0.964 3.519-1.446 5.698-1.446 1.466 0 2.83 0.236 4.093 0.709 1.273 0.463 2.382 1.162 3.326 2.097 0.955 0.935 1.697 2.112 2.227 3.529 0.53 1.408 0.795 3.056 0.795 4.946v1.692h-18.758v-3.818h12.959c0-0.887-0.193-1.673-0.579-2.357s-0.921-1.22-1.605-1.605c-0.675-0.395-1.461-0.593-2.357-0.593-0.935 0-1.764 0.217-2.488 0.651-0.714 0.424-1.273 0.998-1.678 1.721-0.405 0.713-0.612 1.509-0.622 2.386v3.63c0 1.099 0.202 2.049 0.607 2.849 0.415 0.8 0.998 1.417 1.75 1.851s1.644 0.651 2.676 0.651c0.685 0 1.311-0.096 1.88-0.289s1.056-0.482 1.461-0.868c0.405-0.386 0.713-0.858 0.926-1.417l5.698 0.376c-0.289 1.369-0.882 2.565-1.779 3.587-0.887 1.012-2.034 1.803-3.442 2.372-1.398 0.559-3.013 0.839-4.845 0.839z"></path>
<path d="M58.925 8.378l4.079 7.766 4.18-7.766h6.32l-6.436 11.107 6.61 11.108h-6.291l-4.382-7.68-4.31 7.68h-6.364l6.595-11.108-6.364-11.107h6.364z"></path>
<path d="M86.404 31.027c-2.275 0-4.233-0.482-5.872-1.446-1.629-0.974-2.883-2.324-3.76-4.050-0.868-1.726-1.302-3.712-1.302-5.959 0-2.276 0.439-4.271 1.316-5.988 0.887-1.726 2.145-3.071 3.775-4.035 1.63-0.974 3.568-1.461 5.814-1.461 1.938 0 3.635 0.352 5.091 1.056s2.608 1.692 3.457 2.965c0.848 1.273 1.316 2.767 1.403 4.483h-5.814c-0.164-1.109-0.598-2.001-1.302-2.676-0.694-0.685-1.605-1.027-2.733-1.027-0.955 0-1.789 0.26-2.502 0.781-0.704 0.511-1.253 1.258-1.649 2.242s-0.593 2.174-0.593 3.572c0 1.417 0.193 2.623 0.578 3.616 0.395 0.993 0.95 1.75 1.663 2.271s1.547 0.781 2.502 0.781c0.704 0 1.335-0.145 1.895-0.434 0.569-0.289 1.037-0.709 1.403-1.258 0.376-0.559 0.622-1.229 0.738-2.010h5.814c-0.096 1.697-0.559 3.191-1.388 4.483-0.82 1.282-1.952 2.285-3.399 3.008s-3.158 1.085-5.134 1.085z"></path>
<path d="M110.395 31.027c-2.285 0-4.252-0.463-5.901-1.389-1.639-0.935-2.902-2.256-3.789-3.963-0.887-1.716-1.331-3.746-1.331-6.089 0-2.285 0.444-4.291 1.331-6.017s2.136-3.071 3.746-4.035c1.62-0.964 3.519-1.446 5.698-1.446 1.465 0 2.83 0.236 4.093 0.709 1.273 0.463 2.382 1.162 3.326 2.097 0.955 0.935 1.697 2.112 2.227 3.529 0.53 1.408 0.795 3.056 0.795 4.946v1.692h-18.758v-3.818h12.959c0-0.887-0.193-1.673-0.578-2.357s-0.921-1.22-1.605-1.605c-0.675-0.395-1.461-0.593-2.357-0.593-0.935 0-1.764 0.217-2.488 0.651-0.713 0.424-1.273 0.998-1.678 1.721-0.405 0.713-0.612 1.509-0.622 2.386v3.63c0 1.099 0.202 2.049 0.607 2.849 0.415 0.8 0.998 1.417 1.75 1.851s1.644 0.651 2.676 0.651c0.684 0 1.311-0.096 1.88-0.289s1.056-0.482 1.461-0.868c0.405-0.386 0.713-0.858 0.926-1.417l5.698 0.376c-0.289 1.369-0.882 2.565-1.779 3.587-0.887 1.012-2.034 1.803-3.442 2.372-1.398 0.559-3.013 0.839-4.845 0.839z"></path>
<path d="M130.773 17.75v12.843h-6.161v-22.215h5.872v3.919h0.26c0.492-1.292 1.316-2.314 2.473-3.066 1.157-0.762 2.56-1.143 4.209-1.143 1.543 0 2.888 0.337 4.035 1.012s2.039 1.639 2.676 2.893c0.636 1.244 0.954 2.729 0.954 4.455v14.145h-6.161v-13.046c0.010-1.359-0.337-2.42-1.041-3.182-0.704-0.771-1.673-1.157-2.907-1.157-0.829 0-1.562 0.178-2.198 0.535-0.627 0.357-1.118 0.877-1.475 1.562-0.347 0.675-0.525 1.49-0.535 2.444z"></path>
<path d="M161.763 8.378v4.628h-13.377v-4.628h13.377zM151.423 3.056h6.16v20.711c0 0.569 0.087 1.012 0.26 1.331 0.175 0.308 0.415 0.525 0.724 0.651 0.317 0.125 0.684 0.188 1.098 0.188 0.289 0 0.579-0.024 0.868-0.072 0.289-0.058 0.511-0.101 0.665-0.13l0.969 4.585c-0.308 0.096-0.742 0.207-1.3 0.333-0.56 0.135-1.239 0.217-2.039 0.246-1.485 0.058-2.787-0.14-3.905-0.593-1.108-0.453-1.972-1.157-2.589-2.112s-0.921-2.16-0.911-3.616v-21.521z"></path>
</symbol>
<symbol id="icon-send" viewBox="0 0 32 32">
<path d="M30.276 1.724c0.362 0.362 0.485 0.9 0.316 1.383l-9.333 26.667c-0.181 0.516-0.658 0.869-1.204 0.892s-1.051-0.291-1.273-0.791l-5.125-11.531-11.531-5.125c-0.5-0.222-0.813-0.727-0.791-1.273s0.376-1.024 0.892-1.204l26.667-9.333c0.484-0.169 1.021-0.046 1.383 0.316zM16.257 17.629l3.596 8.090 6.292-17.978-9.888 9.888zM24.259 5.855l-17.978 6.292 8.090 3.596 9.888-9.888z"></path>
</symbol>
<symbol id="icon-social-1" viewBox="0 0 32 32">
<path d="M16.001 0.246c-4.12 0-4.637 0.018-6.255 0.092-1.615 0.074-2.717 0.33-3.682 0.705-0.998 0.387-1.844 0.906-2.687 1.749s-1.362 1.69-1.751 2.687c-0.376 0.965-0.632 2.068-0.705 3.682-0.072 1.618-0.091 2.136-0.091 6.256s0.018 4.635 0.092 6.254c0.074 1.615 0.33 2.717 0.705 3.682 0.388 0.998 0.906 1.844 1.75 2.687s1.689 1.363 2.686 1.751c0.965 0.375 2.068 0.631 3.683 0.705 1.618 0.074 2.135 0.092 6.255 0.092s4.636-0.018 6.254-0.092c1.615-0.074 2.719-0.33 3.684-0.705 0.997-0.388 1.843-0.907 2.686-1.751 0.844-0.843 1.362-1.69 1.751-2.687 0.373-0.965 0.629-2.068 0.705-3.682 0.073-1.618 0.092-2.134 0.092-6.254s-0.019-4.637-0.092-6.255c-0.076-1.615-0.332-2.717-0.705-3.682-0.389-0.998-0.907-1.844-1.751-2.687s-1.688-1.362-2.686-1.749c-0.967-0.375-2.070-0.631-3.685-0.705-1.618-0.074-2.133-0.092-6.255-0.092h0.005zM14.64 2.98c0.404-0.001 0.855 0 1.361 0 4.051 0 4.531 0.015 6.13 0.087 1.479 0.068 2.282 0.315 2.817 0.522 0.708 0.275 1.213 0.604 1.743 1.135s0.86 1.037 1.135 1.745c0.208 0.534 0.455 1.337 0.522 2.816 0.073 1.599 0.089 2.080 0.089 6.128s-0.016 4.529-0.089 6.128c-0.068 1.479-0.315 2.282-0.522 2.816-0.275 0.708-0.604 1.212-1.135 1.743s-1.035 0.86-1.743 1.135c-0.534 0.209-1.338 0.455-2.817 0.523-1.599 0.073-2.080 0.089-6.13 0.089s-4.531-0.016-6.13-0.089c-1.479-0.068-2.282-0.315-2.817-0.523-0.708-0.275-1.214-0.604-1.745-1.135s-0.86-1.035-1.135-1.744c-0.208-0.534-0.455-1.337-0.522-2.816-0.073-1.599-0.087-2.080-0.087-6.131s0.015-4.529 0.087-6.128c0.068-1.479 0.315-2.282 0.522-2.817 0.275-0.708 0.604-1.214 1.135-1.745s1.037-0.86 1.745-1.135c0.535-0.209 1.338-0.455 2.817-0.523 1.399-0.063 1.942-0.082 4.769-0.085v0.004zM24.099 5.499c-1.005 0-1.82 0.814-1.82 1.82s0.815 1.82 1.82 1.82c1.005 0 1.821-0.815 1.821-1.82s-0.815-1.82-1.821-1.82zM16.001 7.626c-4.302 0-7.791 3.488-7.791 7.791s3.488 7.789 7.791 7.789c4.302 0 7.789-3.487 7.789-7.789s-3.487-7.791-7.789-7.791zM16.001 10.36c2.793 0 5.057 2.264 5.057 5.057s-2.264 5.057-5.057 5.057c-2.793 0-5.057-2.264-5.057-5.057s2.264-5.057 5.057-5.057z"></path>
</symbol>
<symbol id="icon-social-2" viewBox="0 0 32 32">
<path d="M31.17 15.395c0 1.026-0.104 2.050-0.309 3.049-0.2 0.975-0.496 1.932-0.884 2.847-0.379 0.899-0.85 1.765-1.399 2.573-0.541 0.803-1.165 1.556-1.85 2.242-0.687 0.683-1.442 1.305-2.245 1.849-0.811 0.546-1.678 1.016-2.577 1.397-0.916 0.386-1.876 0.682-2.85 0.882-1 0.206-2.028 0.311-3.056 0.311s-2.056-0.105-3.055-0.311c-0.976-0.2-1.935-0.495-2.851-0.882-0.899-0.381-1.768-0.851-2.578-1.397-0.802-0.544-1.558-1.166-2.243-1.849-0.686-0.686-1.31-1.439-1.852-2.242-0.547-0.808-1.018-1.674-1.399-2.573-0.388-0.915-0.685-1.872-0.886-2.847-0.203-0.999-0.307-2.023-0.307-3.049s0.104-2.053 0.307-3.050c0.201-0.975 0.498-1.934 0.886-2.847 0.381-0.899 0.852-1.766 1.399-2.574 0.542-0.803 1.166-1.555 1.852-2.242 0.685-0.684 1.441-1.304 2.243-1.847 0.81-0.548 1.679-1.018 2.578-1.4 0.916-0.387 1.875-0.684 2.851-0.882 0.999-0.204 2.027-0.308 3.055-0.308s2.056 0.104 3.056 0.308c0.974 0.198 1.933 0.495 2.85 0.882 0.899 0.382 1.767 0.851 2.577 1.4 0.802 0.543 1.558 1.163 2.245 1.847 0.685 0.687 1.309 1.439 1.851 2.242 0.549 0.808 1.020 1.675 1.399 2.574 0.388 0.914 0.684 1.872 0.884 2.847 0.205 0.996 0.309 2.023 0.309 3.050zM10.472 3.694c-3.613 1.704-6.309 5.028-7.15 9.034 0.342 0.003 5.74 0.071 11.961-1.579-2.242-3.978-4.638-7.225-4.811-7.455zM16.356 13.141c-6.671 1.994-13.072 1.851-13.301 1.842-0.004 0.139-0.010 0.274-0.010 0.413 0 3.324 1.256 6.353 3.319 8.644-0.004-0.007 3.541-6.288 10.532-8.545 0.169-0.056 0.341-0.107 0.511-0.155-0.325-0.735-0.68-1.472-1.051-2.198zM24.555 5.686c-2.281-2.008-5.276-3.227-8.556-3.227-1.053 0-2.074 0.127-3.053 0.362 0.194 0.26 2.628 3.484 4.843 7.546 4.889-1.83 6.734-4.635 6.766-4.682zM18.29 17.483c-0.029 0.010-0.058 0.018-0.086 0.028-7.644 2.661-10.14 8.024-10.167 8.082 2.199 1.708 4.958 2.739 7.963 2.739 1.794 0 3.503-0.365 5.058-1.025-0.192-1.13-0.945-5.092-2.768-9.823zM23.239 26.124c2.909-1.96 4.975-5.073 5.551-8.678-0.267-0.086-3.891-1.232-8.073-0.562 1.699 4.663 2.39 8.461 2.522 9.241zM18.787 12.296c0.301 0.617 0.592 1.245 0.861 1.876 0.096 0.226 0.189 0.448 0.28 0.67 4.451-0.559 8.835 0.382 9.023 0.42-0.030-3.067-1.128-5.881-2.946-8.085-0.025 0.035-2.102 3.033-7.218 5.119z"></path>
</symbol>
<symbol id="icon-social-3" viewBox="0 0 37 32">
<path d="M17.19 8.404l0.077 1.265-1.279-0.155c-4.656-0.594-8.723-2.608-12.177-5.992l-1.688-1.679-0.435 1.24c-0.921 2.763-0.333 5.682 1.586 7.644 1.023 1.085 0.793 1.24-0.972 0.594-0.614-0.207-1.151-0.362-1.202-0.284-0.179 0.181 0.435 2.531 0.921 3.461 0.665 1.291 2.021 2.557 3.505 3.306l1.253 0.594-1.484 0.026c-1.433 0-1.484 0.026-1.33 0.568 0.512 1.679 2.533 3.461 4.784 4.235l1.586 0.542-1.381 0.826c-2.046 1.188-4.451 1.859-6.856 1.911-1.151 0.026-2.098 0.129-2.098 0.207 0 0.258 3.121 1.704 4.937 2.273 5.449 1.679 11.921 0.955 16.781-1.911 3.453-2.040 6.907-6.095 8.519-10.020 0.87-2.092 1.739-5.914 1.739-7.748 0-1.188 0.077-1.343 1.509-2.763 0.844-0.826 1.637-1.73 1.791-1.989 0.256-0.491 0.23-0.491-1.074-0.052-2.174 0.775-2.481 0.671-1.407-0.491 0.793-0.826 1.74-2.324 1.74-2.763 0-0.077-0.384 0.052-0.819 0.284-0.46 0.258-1.484 0.646-2.251 0.878l-1.381 0.439-1.253-0.852c-0.691-0.465-1.663-0.981-2.174-1.136-1.305-0.362-3.3-0.31-4.477 0.103-3.198 1.162-5.218 4.158-4.988 7.438z"></path>
</symbol>
<symbol id="icon-social-4" viewBox="0 0 41 32">
<path d="M35.812 2.678c1.679 0.461 3 1.818 3.449 3.541 0.815 3.124 0.815 9.641 0.815 9.641s0 6.517-0.815 9.641c-0.449 1.723-1.77 3.080-3.449 3.541-3.042 0.837-15.24 0.837-15.24 0.837s-12.199 0-15.241-0.837c-1.679-0.461-3-1.818-3.449-3.541-0.815-3.124-0.815-9.641-0.815-9.641s0-6.517 0.815-9.641c0.449-1.723 1.771-3.081 3.449-3.541 3.042-0.837 15.241-0.837 15.241-0.837s12.199 0 15.24 0.837zM16.914 10.374v12.19l9.752-6.095-9.752-6.095z"></path>
</symbol>
<symbol id="icon-arrow-white" viewBox="0 0 31 32">
<path fill="none" stroke="currentColor" stroke-linejoin="miter" stroke-linecap="round" stroke-miterlimit="4" stroke-width="1.92" d="M20.48 20.991l4.215-4.215c0.5-0.5 0.5-1.31 0-1.81l-4.215-4.215M24.32 15.871h-17.92"></path>
</symbol>
<symbol id="icon-footer-logo" viewBox="0 0 204 32">
<path fill="#fff" style="fill: var(--color1, #fff)" d="M24.774 17.32l-7.109 12.176-7.109-12.176h14.218zM26.679 16.232h-18.035l9.021 15.418 9.014-15.418z"></path>
<path fill="#fff" style="fill: var(--color1, #fff)" d="M37.135 2.176l7.109 12.176h-14.218l7.109-12.176zM37.135 0l-9.021 15.418h18.043l-9.021-15.418z"></path>
<path fill="#4caf4f" style="fill: var(--color2, #4caf4f)" d="M0 0l7.564 13.637 8.266-13.294-15.83-0.342z"></path>
<path fill="#4caf4f" style="fill: var(--color2, #4caf4f)" d="M17.665 1.195l7.934 13.561h-15.884l7.95-13.561z"></path>
<path fill="#4caf4f" style="fill: var(--color2, #4caf4f)" d="M27.643 17.716l7.942 13.934h-16.262l8.073-13.934h0.247z"></path>
<path fill="#4caf4f" style="fill: var(--color2, #4caf4f)" d="M29.362 16.871l7.772 13.721 7.88-13.721h-15.653z"></path>
<path fill="#fff" style="fill: var(--color1, #fff)" d="M79.168 2.201v26.854h-4.904l-11.683-16.902h-0.197v16.902h-5.678v-26.854h4.983l11.591 16.889h0.236v-16.889h5.651z"></path>
<path fill="#fff" style="fill: var(--color1, #fff)" d="M92.933 29.449c-2.072 0-3.855-0.42-5.35-1.259-1.486-0.848-2.631-2.046-3.436-3.593-0.804-1.556-1.206-3.396-1.206-5.52 0-2.072 0.402-3.89 1.206-5.455s1.936-2.784 3.396-3.658c1.469-0.874 3.191-1.311 5.166-1.311 1.329 0 2.566 0.214 3.711 0.643 1.154 0.42 2.159 1.053 3.016 1.901 0.865 0.848 1.539 1.914 2.019 3.199 0.481 1.276 0.721 2.771 0.721 4.484v1.534h-17.007v-3.462h11.749c0-0.804-0.175-1.517-0.525-2.137s-0.835-1.106-1.455-1.455c-0.612-0.358-1.324-0.538-2.137-0.538-0.848 0-1.6 0.197-2.255 0.59-0.647 0.385-1.154 0.905-1.521 1.56-0.367 0.647-0.555 1.368-0.564 2.164v3.291c0 0.997 0.184 1.858 0.551 2.583 0.376 0.726 0.905 1.285 1.587 1.678s1.491 0.59 2.426 0.59c0.621 0 1.189-0.087 1.705-0.262s0.957-0.437 1.324-0.787c0.367-0.35 0.647-0.778 0.839-1.285l5.166 0.341c-0.262 1.241-0.8 2.325-1.613 3.252-0.804 0.918-1.844 1.635-3.121 2.151-1.268 0.507-2.732 0.761-4.393 0.761z"></path>
<path fill="#fff" style="fill: var(--color1, #fff)" d="M110.13 8.915l3.697 7.041 3.79-7.041h5.73l-5.836 10.070 5.993 10.070h-5.703l-3.973-6.963-3.907 6.963h-5.77l5.98-10.070-5.77-10.070h5.77z"></path>
<path fill="#fff" style="fill: var(--color1, #fff)" d="M135.043 29.449c-2.063 0-3.838-0.437-5.324-1.311-1.477-0.883-2.613-2.107-3.409-3.672-0.786-1.565-1.18-3.366-1.18-5.402 0-2.063 0.398-3.873 1.193-5.429 0.804-1.565 1.946-2.784 3.423-3.658 1.477-0.883 3.234-1.324 5.271-1.324 1.757 0 3.295 0.319 4.615 0.957 1.319 0.638 2.365 1.534 3.134 2.688s1.193 2.509 1.271 4.065h-5.271c-0.148-1.005-0.542-1.814-1.18-2.426-0.629-0.621-1.455-0.931-2.478-0.931-0.866 0-1.622 0.236-2.269 0.708-0.638 0.463-1.136 1.141-1.494 2.032s-0.538 1.971-0.538 3.239c0 1.285 0.174 2.378 0.524 3.278 0.358 0.9 0.862 1.587 1.508 2.059s1.403 0.708 2.269 0.708c0.638 0 1.211-0.131 1.717-0.393 0.516-0.262 0.94-0.642 1.271-1.141 0.341-0.507 0.564-1.115 0.669-1.823h5.271c-0.087 1.539-0.507 2.894-1.259 4.065-0.743 1.163-1.77 2.072-3.082 2.727-1.311 0.656-2.863 0.983-4.655 0.983z"></path>
<path fill="#fff" style="fill: var(--color1, #fff)" d="M156.794 29.449c-2.071 0-3.855-0.42-5.349-1.259-1.487-0.848-2.631-2.046-3.436-3.593-0.804-1.556-1.206-3.396-1.206-5.52 0-2.072 0.402-3.89 1.206-5.455s1.936-2.784 3.396-3.658c1.469-0.874 3.19-1.311 5.166-1.311 1.329 0 2.566 0.214 3.711 0.643 1.154 0.42 2.159 1.053 3.017 1.901 0.865 0.848 1.538 1.914 2.019 3.199 0.48 1.276 0.721 2.771 0.721 4.484v1.534h-17.007v-3.462h11.748c0-0.804-0.175-1.517-0.524-2.137-0.35-0.621-0.835-1.106-1.456-1.455-0.612-0.358-1.325-0.538-2.138-0.538-0.848 0-1.599 0.197-2.255 0.59-0.647 0.385-1.154 0.905-1.521 1.56-0.367 0.647-0.556 1.368-0.564 2.164v3.291c0 0.997 0.183 1.858 0.551 2.583 0.375 0.726 0.905 1.285 1.586 1.678s1.49 0.59 2.426 0.59c0.621 0 1.189-0.087 1.705-0.262 0.516-0.175 0.958-0.437 1.325-0.787s0.646-0.778 0.839-1.285l5.166 0.341c-0.262 1.241-0.8 2.325-1.613 3.252-0.804 0.918-1.844 1.635-3.121 2.151-1.267 0.507-2.732 0.761-4.393 0.761z"></path>
<path fill="#fff" style="fill: var(--color1, #fff)" d="M175.269 17.411v11.644h-5.586v-20.141h5.324v3.554h0.236c0.446-1.171 1.194-2.098 2.243-2.78 1.049-0.691 2.32-1.036 3.815-1.036 1.398 0 2.618 0.306 3.659 0.918 1.040 0.612 1.849 1.486 2.426 2.623 0.577 1.128 0.865 2.474 0.865 4.039v12.824h-5.586v-11.828c0.009-1.233-0.306-2.194-0.944-2.885-0.638-0.699-1.517-1.049-2.636-1.049-0.752 0-1.415 0.162-1.993 0.485-0.569 0.323-1.014 0.795-1.338 1.416-0.315 0.612-0.477 1.351-0.485 2.216z"></path>
<path fill="#fff" style="fill: var(--color1, #fff)" d="M203.366 8.915v4.196h-12.129v-4.196h12.129zM193.99 4.089h5.586v18.777c0 0.516 0.079 0.918 0.236 1.206 0.158 0.28 0.377 0.476 0.656 0.59 0.288 0.114 0.621 0.17 0.996 0.17 0.262 0 0.525-0.022 0.787-0.066 0.262-0.052 0.463-0.092 0.603-0.118l0.879 4.157c-0.279 0.087-0.673 0.188-1.18 0.302-0.508 0.122-1.123 0.197-1.85 0.223-1.346 0.052-2.526-0.127-3.54-0.538-1.005-0.411-1.788-1.049-2.347-1.914-0.56-0.865-0.835-1.958-0.827-3.278v-19.511z"></path>
</symbol>
<symbol id="icon-header-logo" viewBox="0 0 207 32">
<path fill="#263238" style="fill: var(--color3, #263238)" d="M25.048 17.512l-7.188 12.31-7.188-12.31h14.376zM26.974 16.412h-18.235l9.121 15.588 9.113-15.588z"></path>
<path fill="#263238" style="fill: var(--color3, #263238)" d="M37.545 2.2l7.188 12.311h-14.376l7.188-12.311zM37.545 0l-9.121 15.588h18.243l-9.121-15.588z"></path>
<path fill="#4caf4f" style="fill: var(--color2, #4caf4f)" d="M0 0l7.648 13.788 8.357-13.442-16.005-0.346z"></path>
<path fill="#4caf4f" style="fill: var(--color2, #4caf4f)" d="M17.861 1.208l8.022 13.711h-16.060l8.038-13.711z"></path>
<path fill="#4caf4f" style="fill: var(--color2, #4caf4f)" d="M27.949 17.912l8.030 14.088h-16.442l8.162-14.088h0.249z"></path>
<path fill="#4caf4f" style="fill: var(--color2, #4caf4f)" d="M29.687 17.058l7.858 13.872 7.967-13.872h-15.826z"></path>
<path fill="#263238" style="fill: var(--color3, #263238)" d="M80.044 2.225v27.152h-4.958l-11.813-17.089h-0.199v17.089h-5.741v-27.152h5.038l11.72 17.076h0.239v-17.076h5.714z"></path>
<path fill="#263238" style="fill: var(--color3, #263238)" d="M93.961 29.775c-2.095 0-3.898-0.424-5.409-1.273-1.503-0.857-2.66-2.068-3.473-3.633-0.813-1.573-1.22-3.434-1.22-5.581 0-2.095 0.407-3.933 1.22-5.515s1.958-2.815 3.434-3.699c1.485-0.884 3.226-1.326 5.223-1.326 1.343 0 2.594 0.217 3.752 0.65 1.167 0.424 2.183 1.065 3.049 1.922 0.875 0.857 1.556 1.936 2.042 3.235 0.486 1.29 0.729 2.802 0.729 4.534v1.551h-17.195v-3.5h11.879c0-0.813-0.177-1.533-0.53-2.161s-0.844-1.118-1.472-1.472c-0.619-0.362-1.339-0.544-2.161-0.544-0.857 0-1.617 0.199-2.28 0.597-0.654 0.389-1.167 0.915-1.538 1.578-0.371 0.654-0.561 1.383-0.57 2.187v3.328c0 1.008 0.186 1.878 0.557 2.612 0.38 0.734 0.915 1.299 1.604 1.697s1.507 0.597 2.453 0.597c0.628 0 1.202-0.088 1.723-0.265s0.968-0.442 1.339-0.795c0.371-0.354 0.654-0.787 0.849-1.299l5.223 0.345c-0.265 1.255-0.809 2.351-1.631 3.288-0.813 0.928-1.865 1.653-3.155 2.174-1.282 0.513-2.762 0.769-4.441 0.769z"></path>
<path fill="#263238" style="fill: var(--color3, #263238)" d="M111.348 9.013l3.739 7.119 3.831-7.119h5.793l-5.9 10.182 6.059 10.182h-5.767l-4.017-7.040-3.951 7.040h-5.833l6.045-10.182-5.833-10.182h5.833z"></path>
<path fill="#263238" style="fill: var(--color3, #263238)" d="M136.537 29.775c-2.085 0-3.88-0.442-5.383-1.326-1.494-0.893-2.643-2.13-3.447-3.712-0.795-1.582-1.193-3.403-1.193-5.462 0-2.086 0.402-3.915 1.206-5.489 0.813-1.582 1.967-2.815 3.46-3.699 1.494-0.893 3.271-1.339 5.329-1.339 1.777 0 3.332 0.323 4.667 0.968s2.391 1.551 3.169 2.718c0.777 1.167 1.205 2.537 1.285 4.11h-5.329c-0.151-1.016-0.548-1.834-1.193-2.453-0.636-0.628-1.472-0.941-2.505-0.941-0.875 0-1.64 0.239-2.293 0.716-0.645 0.468-1.149 1.153-1.512 2.055s-0.544 1.993-0.544 3.275c0 1.299 0.177 2.404 0.53 3.314 0.362 0.91 0.871 1.604 1.525 2.081 0.653 0.477 1.419 0.716 2.293 0.716 0.645 0 1.224-0.133 1.736-0.398 0.521-0.265 0.951-0.65 1.287-1.153 0.344-0.513 0.569-1.127 0.676-1.843h5.329c-0.088 1.555-0.512 2.925-1.272 4.11-0.752 1.175-1.791 2.095-3.116 2.757s-2.895 0.994-4.707 0.994z"></path>
<path fill="#263238" style="fill: var(--color3, #263238)" d="M158.528 29.775c-2.095 0-3.897-0.424-5.409-1.273-1.501-0.857-2.66-2.068-3.473-3.633-0.812-1.573-1.219-3.434-1.219-5.581 0-2.095 0.407-3.933 1.219-5.515 0.813-1.582 1.959-2.815 3.435-3.699 1.484-0.884 3.225-1.326 5.223-1.326 1.344 0 2.595 0.217 3.752 0.65 1.167 0.424 2.184 1.065 3.049 1.922 0.875 0.857 1.556 1.936 2.041 3.235 0.487 1.29 0.729 2.802 0.729 4.534v1.551h-17.195v-3.5h11.879c0-0.813-0.177-1.533-0.531-2.161s-0.844-1.118-1.471-1.472c-0.619-0.362-1.34-0.544-2.161-0.544-0.857 0-1.617 0.199-2.28 0.597-0.655 0.389-1.167 0.915-1.539 1.578-0.371 0.654-0.561 1.383-0.569 2.187v3.328c0 1.008 0.185 1.878 0.556 2.612 0.38 0.734 0.915 1.299 1.604 1.697s1.508 0.597 2.453 0.597c0.628 0 1.201-0.088 1.724-0.265 0.521-0.177 0.967-0.442 1.339-0.795 0.371-0.354 0.653-0.787 0.848-1.299l5.224 0.345c-0.265 1.255-0.809 2.351-1.631 3.288-0.813 0.928-1.865 1.653-3.156 2.174-1.281 0.513-2.761 0.769-4.441 0.769z"></path>
<path fill="#263238" style="fill: var(--color3, #263238)" d="M177.208 17.604v11.773h-5.648v-20.364h5.383v3.593h0.239c0.451-1.184 1.207-2.121 2.268-2.811 1.060-0.698 2.347-1.047 3.857-1.047 1.415 0 2.647 0.309 3.699 0.928s1.869 1.503 2.453 2.652c0.583 1.14 0.875 2.501 0.875 4.083v12.966h-5.648v-11.958c0.009-1.246-0.309-2.218-0.955-2.917-0.645-0.707-1.533-1.061-2.664-1.061-0.76 0-1.432 0.163-2.016 0.491-0.575 0.327-1.025 0.804-1.352 1.432-0.317 0.619-0.481 1.366-0.491 2.241z"></path>
<path fill="#263238" style="fill: var(--color3, #263238)" d="M205.616 9.013v4.242h-12.263v-4.242h12.263zM196.137 4.134h5.647v18.985c0 0.521 0.080 0.928 0.239 1.22 0.16 0.283 0.38 0.482 0.664 0.597 0.291 0.115 0.627 0.172 1.007 0.172 0.265 0 0.531-0.022 0.796-0.066 0.265-0.053 0.468-0.093 0.609-0.119l0.888 4.203c-0.283 0.088-0.68 0.19-1.192 0.305-0.513 0.124-1.136 0.199-1.869 0.225-1.361 0.053-2.555-0.128-3.58-0.544-1.016-0.415-1.808-1.061-2.373-1.936s-0.844-1.98-0.835-3.314v-19.727z"></path>
</symbol>
</defs>
</svg>
